<svg id="Group_8546" data-name="Group 8546" xmlns="http://www.w3.org/2000/svg" xmlns:xlink="http://www.w3.org/1999/xlink" width="62.106" height="74.269" viewBox="0 0 62.106 74.269">
  <defs>
    <clipPath id="clip-path">
      <rect id="Rectangle_8137" data-name="Rectangle 8137" width="62.106" height="74.269" fill="none"/>
    </clipPath>
  </defs>
  <g id="Group_8545" data-name="Group 8545" clip-path="url(#clip-path)">
    <path id="Path_4145" data-name="Path 4145" d="M182.913,294.141a.723.723,0,1,1,0-1.445,17.527,17.527,0,0,0,2.712-.208.723.723,0,1,1,.223,1.428,18.957,18.957,0,0,1-2.935.225" transform="translate(-151.859 -243.788)" fill="#23232d"/>
    <path id="Path_4146" data-name="Path 4146" d="M79.718,106.181a.724.724,0,0,1-.4-.118,19.3,19.3,0,1,1,25.045-3.358.723.723,0,1,1-1.082-.959,17.851,17.851,0,1,0-23.169,3.108.723.723,0,0,1-.4,1.327" transform="translate(-58.855 -58.872)" fill="#23232d"/>
    <path id="Path_4147" data-name="Path 4147" d="M20.865,60.355a.732.732,0,0,1-.243-.042A31.057,31.057,0,1,1,45.3,58.652a.723.723,0,1,1-.664-1.284A29.606,29.606,0,1,0,21.108,58.95a.724.724,0,0,1-.243,1.405" fill="#23232d"/>
    <path id="Path_4148" data-name="Path 4148" d="M182.913,365.16a.723.723,0,0,1,0-1.445c.939,0,1.865-.045,2.752-.132a.722.722,0,0,1,.141,1.437c-.934.093-1.906.14-2.893.14" transform="translate(-151.859 -303.051)" fill="#23232d"/>
    <path id="Path_4149" data-name="Path 4149" d="M126.207,181.129a2.224,2.224,0,0,0,3.784-1.58V148.56l.073-.03a6.039,6.039,0,0,0,3.771-5.61V130.785a1.813,1.813,0,0,0-1.818-1.815,1.815,1.815,0,0,0-1.81,1.815v10.14a.788.788,0,0,0,.022.16l0,.027-.005.108a.323.323,0,0,1-.311.23.306.306,0,0,1-.315-.25c0-.025,0-.042,0-.058l0-.013.012-.072a.5.5,0,0,0,.007-.07l-.047.01,0-.028h.05V130.785a1.816,1.816,0,0,0-3.633,0v10.2a.745.745,0,0,0,.008.1l.007.01v.077h0v1.109l-.175-.844a.336.336,0,0,1-.5-.26v-.005h-.012v-.023l.008-.022,0,0,0-.028a.613.613,0,0,0,.012-.122v-10.2a1.806,1.806,0,0,0-.533-1.28,1.813,1.813,0,0,0-3.1,1.28v12.135a6.039,6.039,0,0,0,3.771,5.61l.073.03v30.99a2.265,2.265,0,0,0,.653,1.58m-3.29-38.21V130.785a.615.615,0,0,1,.609-.6.6.6,0,0,1,.425.18.592.592,0,0,1,.18.424l0,10.145a1.334,1.334,0,0,0-.013.216v.047a1.544,1.544,0,0,0,3.087,0v-.047a1.344,1.344,0,0,0-.013-.216l0-.018V130.781a.607.607,0,0,1,.609-.6.624.624,0,0,1,.425.178.593.593,0,0,1,.18.426v10.127a1.891,1.891,0,0,0-.02.236.853.853,0,0,0,.007.113,1.53,1.53,0,0,0,3.043.047c0-.022,0-.052,0-.073v-.183c0-.022,0-.043,0-.065-.005-.04-.01-.078-.018-.117l0-.023v-10.06a.61.61,0,0,1,.6-.6.624.624,0,0,1,.428.173.61.61,0,0,1,.181.431v12.135a4.9,4.9,0,0,1-3.419,4.635.6.6,0,0,0-.425.578v31.418a1.008,1.008,0,0,1-1,1.009,1.023,1.023,0,0,1-.714-.285,1.041,1.041,0,0,1-.3-.724V148.132a.6.6,0,0,0-.425-.578,4.9,4.9,0,0,1-3.416-4.635" transform="translate(-101.448 -107.499)" fill="#ff6e28"/>
    <path id="Path_4150" data-name="Path 4150" d="M211.3,183.811a2.219,2.219,0,0,0,2.218-2.216l.1-9.757.285-37.922a2.364,2.364,0,0,0-.724-1.7,2.17,2.17,0,0,0-1.51-.616c-.03,0-.058,0-.088,0-2.219.1-3.468,4.049-4.139,6.171-.057.18-.108.341-.153.478a28.616,28.616,0,0,0-1.422,7.833,27,27,0,0,0,3.072,13.51,11.2,11.2,0,0,1,.463,1.031l.063.17v.022l-.378,20.773a2.269,2.269,0,0,0,.654,1.577,2.2,2.2,0,0,0,1.563.646m-4.229-37.679a27.507,27.507,0,0,1,1.362-7.5c.047-.14.1-.306.156-.491.714-2.261,1.806-5.274,3.037-5.327h.038a.977.977,0,0,1,.673.28,1.144,1.144,0,0,1,.351.821L212.4,171.83l-.1,9.762A1.012,1.012,0,0,1,211.3,182.6a1.026,1.026,0,0,1-.709-.29,1.039,1.039,0,0,1-.3-.711l.381-20.9a.624.624,0,0,0-.037-.221l-.107-.286a12.173,12.173,0,0,0-.521-1.162,25.791,25.791,0,0,1-2.935-12.9" transform="translate(-171.574 -109.691)" fill="#ff6e28"/>
  </g>
</svg>
