<svg xmlns="http://www.w3.org/2000/svg" xmlns:xlink="http://www.w3.org/1999/xlink" width="1440" height="73.266" viewBox="0 0 1440 73.266">
  <defs>
    <clipPath id="clip-path">
      <rect id="Rectangle_8161" data-name="Rectangle 8161" width="73.266" height="1440" fill="none"/>
    </clipPath>
  </defs>
  <g id="Group_8617" data-name="Group 8617" transform="translate(1440) rotate(90)">
    <g id="Group_8614" data-name="Group 8614" clip-path="url(#clip-path)">
      <path id="Path_4389" data-name="Path 4389" d="M73.259,2465.466a72.558,72.558,0,0,0-.7-9.426A72.666,72.666,0,0,0,.7,2393.61H0v73.262H73.262v-.7c0-.235,0-.467,0-.7m-71.85-70.444a71.228,71.228,0,0,1,70.437,70.44H1.409Z" transform="translate(0 -1601.696)" fill="#ff6e28"/>
      <path id="Path_4390" data-name="Path 4390" d="M1.5,2684.773a71.853,71.853,0,0,0,71.853-71.853H1.5Z" transform="translate(-1.004 -1748.448)" fill="#ef6a2d"/>
      <path id="Path_4391" data-name="Path 4391" d="M0,2612.413v.2H.5v70.444H1v-70.649Zm0,0v.2H.5v70.444H1v-70.649Zm0,0v.2H.5v70.444H1v-70.649Zm0,0v.2H.5v70.444H1v-70.649Zm0,0v.2H.5v70.444H1v-70.649Zm0-.993v72.849H.5c.235,0,.473,0,.7,0a72.251,72.251,0,0,0,12.46-1.2,72.548,72.548,0,0,0,57.981-57.991,72.149,72.149,0,0,0,1.2-12.453c0-.235,0-.47,0-.705v-.5H0Zm71.85,1.2q-.025,2.392-.205,4.748a71.465,71.465,0,0,1-65.7,65.7q-2.352.184-4.744.2c-.069,0-.139,0-.208,0v-70.857H71.853c0,.066,0,.136,0,.205M0,2612.413v.2H.5v70.444H1v-70.649Zm0,0v.2H.5v70.444H1v-70.649Zm0,0v.2H.5v70.444H1v-70.649Zm0,0v.2H.5v70.444H1v-70.649Zm0,0v.2H.5v70.444H1v-70.649Z" transform="translate(0 -1747.444)" fill="#ef6a2d"/>
      <path id="Path_4392" data-name="Path 4392" d="M0,2827.97v.7c0,.235,0,.467,0,.7a72.505,72.505,0,0,0,72.551,71.86h.7v-73.262H0Zm1.413,1.409h70.44v70.443a71.236,71.236,0,0,1-70.44-70.443" transform="translate(0 -1892.35)" fill="#ff6e28"/>
      <path id="Path_4393" data-name="Path 4393" d="M73.259,3334.385c0-.069,0-.135,0-.2q-.025-2.427-.205-4.814c-.116-1.552-.285-3.09-.5-4.615-.142-1.022-.311-2.038-.5-3.047a72.765,72.765,0,0,0-57.087-57.968,72.128,72.128,0,0,0-13.565-1.406c-.235,0-.47,0-.7,0H0v73.262H73.262v-.708c0-.165,0-.334,0-.5m-1.409-.2H1.409v-70.44a71.229,71.229,0,0,1,70.44,70.44" transform="translate(0 -2183.004)" fill="#ff6e28"/>
      <path id="Path_4394" data-name="Path 4394" d="M72.558,3045.15A72.507,72.507,0,0,0,0,3117c0,.235,0,.469,0,.7v.7H73.262V3045.15Zm-.7,71.853H1.413a71.226,71.226,0,0,1,70.44-70.437Z" transform="translate(0 -2037.677)" fill="#ff6e28"/>
      <path id="Path_4395" data-name="Path 4395" d="M0,220.31v.7c0,.235,0,.467,0,.7a72.5,72.5,0,0,0,72.551,71.86h.7V220.31Zm1.413,1.406h70.44V292.16a71.232,71.232,0,0,1-70.44-70.444" transform="translate(0 -147.422)" fill="#ff6e28"/>
      <path id="Path_4396" data-name="Path 4396" d="M72.558,437.49A72.508,72.508,0,0,0,0,509.343c0,.235,0,.47,0,.7v.7H73.262V437.49Zm-.7,71.853H1.413a71.226,71.226,0,0,1,70.44-70.437Z" transform="translate(0 -292.749)" fill="#ff6e28"/>
      <path id="Path_4397" data-name="Path 4397" d="M73.353,3770.673V3698.82A71.853,71.853,0,0,0,1.5,3770.673Z" transform="translate(-1.004 -2475.083)" fill="#ffb121"/>
      <path id="Path_4398" data-name="Path 4398" d="M72.349,3697.31c-.235,0-.47,0-.7,0q-2.68.025-5.3.245s0,0,0,0c-.834.069-1.667.152-2.495.248A72.328,72.328,0,0,0,0,3769.662v.5H72.845V3697.31Zm-.5,71.853H1q.015-2.5.205-4.953a71.448,71.448,0,0,1,70.444-65.9c.069,0,.139,0,.208,0Z" transform="translate(0 -2474.073)" fill="#ffb121"/>
      <path id="Path_4399" data-name="Path 4399" d="M1.5,3481.64a71.851,71.851,0,0,0,71.853,71.853V3481.64Z" transform="translate(-1.004 -2329.756)" fill="#ffb121"/>
      <path id="Path_4400" data-name="Path 4400" d="M0,3480.13v.5c0,.235,0,.47,0,.7a72.3,72.3,0,0,0,63.837,71.148c.83.1,1.661.182,2.5.248h.007q2.625.218,5.3.245c.235,0,.47,0,.7,0h.5V3480.13Zm71.853,71.853c-.069,0-.139,0-.208,0a71.448,71.448,0,0,1-70.444-65.9q-.184-2.353-.205-4.744c0-.07,0-.139,0-.209H71.85v70.857Z" transform="translate(0 -2328.746)" fill="#ffb121"/>
      <path id="Path_4401" data-name="Path 4401" d="M0,4131.061v1.4a73.959,73.959,0,0,0,1.4,13.571,72.689,72.689,0,0,0,71.152,58.286h.7v-73.259ZM71.853,4202.9a71.222,71.222,0,0,1-70.434-70.434H71.853Z" transform="translate(0 -2764.32)" fill="#82001e"/>
      <path id="Path_4402" data-name="Path 4402" d="M74.724,4135.3v70.433A71.221,71.221,0,0,1,4.29,4135.3Z" transform="translate(-2.871 -2767.156)" fill="#82001e"/>
      <path id="Path_4403" data-name="Path 4403" d="M72.564,3913.87c-.165,0-.331,0-.5,0q-.1-.005-.208,0-2.412.025-4.787.2-2.342.174-4.642.5c-1.022.143-2.038.311-3.047.5a72.494,72.494,0,0,0-59.37,70.652v0c0,.235,0,.467,0,.7v.7H73.272V3913.87ZM1.419,3985.723a71.229,71.229,0,0,1,70.44-70.44v70.44Z" transform="translate(-0.007 -2618.985)" fill="#ff6e28"/>
      <path id="Path_4404" data-name="Path 4404" d="M1.5,2176.42a71.851,71.851,0,0,0,71.853,71.853V2176.42Z" transform="translate(-1.004 -1456.362)" fill="#82001e"/>
      <path id="Path_4405" data-name="Path 4405" d="M71.645,2175.416H1.2v.5H71.645Zm0,0H1.2v.5H71.645Zm0,0H1.2v.5H71.645Zm0,0H1.2v.5H71.645Zm0,0H1.2v.5H71.645Zm-71.641.5a72.325,72.325,0,0,0,72.346,71.853h.5V2174.92H0v.5c0,.166,0,.334,0,.5m71.85,0v70.857q-2.5-.015-4.953-.205a71.469,71.469,0,0,1-65.7-65.7q-.189-2.456-.205-4.952H71.853Zm-.208-.5H1.2v.5H71.645Zm0,0H1.2v.5H71.645Zm0,0H1.2v.5H71.645Zm0,0H1.2v.5H71.645Zm0,0H1.2v.5H71.645Z" transform="translate(0 -1455.358)" fill="#82001e"/>
      <path id="Path_4406" data-name="Path 4406" d="M0,1741.124c0,.069,0,.139,0,.208a72.524,72.524,0,0,0,63.2,71.251q1.087.144,2.187.248h0c1.1.109,2.2.192,3.312.248q1.563.084,3.143.1.1,0,.208,0c.165,0,.331,0,.5,0h.7V1739.92H0v.7c0,.169,0,.334,0,.5m71.85.208v70.44a71.229,71.229,0,0,1-70.44-70.44Z" transform="translate(0 -1164.276)" fill="#ff6e28"/>
      <path id="Path_4407" data-name="Path 4407" d="M73.353,1959.24A71.853,71.853,0,0,0,1.5,2031.093H73.353Z" transform="translate(-1.004 -1311.035)" fill="#82001e"/>
      <path id="Path_4408" data-name="Path 4408" d="M1,2029.384a71.441,71.441,0,0,1,67.5-70.546c-1.112-.056-2.213-.139-3.312-.248h0c-.139.013-.281.03-.42.043s-.281.03-.42.046c-.218.023-.433.05-.648.076a.1.1,0,0,1-.033,0c-.093.01-.185.023-.278.033-.162.02-.324.04-.483.063l-.371.05c-.189.023-.377.05-.562.079-.076.01-.152.02-.225.033-.251.036-.5.076-.748.116-.278.043-.553.089-.83.136-.126.02-.245.043-.367.063s-.245.043-.367.066l-.324.06q-.283.049-.566.109a.764.764,0,0,0-.076.016c-.251.046-.506.1-.758.152-.328.07-.658.139-.983.212-.043.01-.083.016-.122.03-.175.036-.354.076-.529.119q-.809.189-1.615.394l-.2.05c-.189.046-.377.1-.566.149l-.043.01c-.268.073-.536.146-.8.222-.112.033-.225.063-.334.1l-.334.1c-.007,0-.013,0-.02.007l-.136.04s0,0,0,0l-.43.129a.075.075,0,0,1-.026.007l-.1.03c-.05.017-.1.03-.149.046-.165.049-.331.1-.5.155s-.321.1-.483.152c-.089.026-.179.056-.265.086s-.179.059-.265.086c-.063.02-.126.043-.189.063-.232.076-.463.156-.7.235-.129.043-.255.089-.38.132l-.308.109c-.023.01-.05.016-.076.026-.2.073-.4.142-.6.215-.159.059-.318.116-.473.179-.03.01-.06.023-.086.033-.149.053-.291.109-.437.166q-.357.134-.715.278l-.758.308c-.251.1-.5.208-.754.314-.5.212-1,.43-1.5.652-.248.112-.5.225-.741.341-.089.043-.182.086-.271.125l-.073.033c-.129.063-.261.126-.39.185l-.291.139c-.1.047-.192.093-.288.143-.036.016-.073.033-.109.053a.369.369,0,0,0-.063.033c-.152.073-.3.149-.453.225l-.414.208c-.212.109-.427.218-.639.331-.093.049-.185.1-.278.146s-.182.1-.275.149l-.189.1c-.172.093-.344.185-.513.278-.069.036-.136.073-.2.113l-.056.029c-.172.1-.344.189-.513.288a.718.718,0,0,0-.069.04l-.334.189c-.112.063-.222.129-.334.192s-.232.136-.344.2-.228.136-.344.2l-.073.043c-.013.007-.023.017-.036.023-.248.149-.5.3-.741.45-.182.109-.361.221-.539.334-.285.179-.569.358-.85.543l-.394.255c-.1.07-.208.136-.311.205l-.076.05-.152.1c-.248.165-.5.334-.744.5-.139.1-.278.188-.417.285s-.275.2-.414.291c-.086.06-.169.119-.255.182s-.169.122-.251.182c-.265.192-.533.384-.8.582l-.308.229c-.1.076-.205.155-.308.232-.02.016-.04.029-.06.046-.205.156-.407.311-.609.47-.179.136-.354.275-.529.417a.458.458,0,0,0-.05.036c-.036.03-.073.056-.109.086-.192.152-.384.3-.576.46-.208.169-.417.341-.622.513s-.384.324-.576.486c-.218.185-.433.371-.648.556-.394.344-.784.688-1.168,1.039l-.033.033c-.4.361-.791.728-1.178,1.095-.2.185-.387.371-.579.559q-.576.561-1.141,1.135c-.189.192-.374.384-.559.576s-.371.39-.556.582-.367.39-.549.589c-.165.179-.328.357-.49.539l-.1.109s0,.007-.007.007l-.069.079c-.139.155-.275.307-.41.463-.089.1-.179.2-.265.3s-.175.2-.261.3c-.175.205-.351.407-.523.612s-.344.41-.516.619-.341.417-.51.625-.334.42-.5.632-.337.43-.5.645c-.324.424-.645.85-.956,1.28-.159.218-.318.433-.473.652s-.311.437-.463.659c-.136.192-.268.384-.4.579a.708.708,0,0,0-.043.063.4.4,0,0,1-.033.046c-.116.169-.232.341-.344.51-.043.063-.086.129-.129.2-.083.122-.162.245-.242.367-.01.013-.02.03-.03.043s-.033.056-.053.083a.012.012,0,0,1,0,.007l-.04.06-.073.113c-.129.2-.261.407-.39.612l-.056.086c-.01.013-.017.03-.026.043-.119.192-.238.381-.357.573s-.238.391-.357.585c0,0-.007.007-.007.01-.06.1-.122.2-.179.3-.109.182-.218.364-.324.546-.126.215-.251.43-.374.645-.146.255-.288.51-.433.767-.073.126-.142.255-.212.384s-.142.258-.212.387c-.222.41-.443.827-.655,1.244-.136.265-.271.53-.4.794-.122.245-.242.486-.357.728s-.235.49-.351.734-.228.49-.341.734c0,0,0,0,0,.007-.112.248-.225.5-.334.741s-.218.5-.328.748c-.076.175-.149.347-.222.523-.017.036-.03.072-.046.109-.043.1-.083.2-.126.3-.066.155-.129.314-.2.469-.026.069-.056.139-.083.205-.089.218-.175.44-.261.658-.079.2-.155.4-.232.6a.048.048,0,0,0-.007.02c-.06.152-.116.3-.169.457-.007.016-.01.033-.017.046-.053.139-.1.275-.152.413q-.144.387-.278.775c-.089.258-.179.516-.265.777-.155.463-.308.927-.453,1.393-.043.129-.083.261-.126.394-.007.02-.01.036-.017.056-.056.176-.109.351-.162.53-.033.116-.069.231-.1.344s-.069.231-.1.344c-.01.033-.02.07-.03.1,0,.01-.007.02-.01.033s-.007.023-.01.037c-.033.112-.063.225-.1.337s-.069.248-.1.371-.073.261-.109.394c-.007.02-.01.04-.017.059-.01.036-.02.076-.03.113s-.01.043-.017.066c-.023.093-.05.189-.073.281-.036.136-.069.271-.106.407-.007.023-.013.049-.02.076s-.01.046-.017.069c-.017.069-.036.142-.053.215-.056.222-.112.447-.165.672a1.114,1.114,0,0,0-.026.113c-.05.218-.1.437-.152.652,0,.007,0,.016-.007.023-.007.023-.01.043-.017.066s-.007.03-.01.046c-.06.261-.116.523-.172.784s-.106.5-.155.751-.1.486-.142.731c-.026.139-.053.278-.076.42a.031.031,0,0,0,0,.017c-.033.182-.069.364-.1.549-.05.275-.1.549-.142.827-.089.552-.175,1.108-.251,1.664-.013.093-.023.182-.036.275l-.02.139c-.023.169-.046.338-.066.5-.033.258-.063.516-.1.777s-.063.549-.089.824c-.013.129-.03.261-.04.391s-.026.261-.036.39c0,.007,0,.017,0,.023a.5.5,0,0,0-.007.066q-.035.343-.06.685c-.007.07-.01.139-.017.208-.017.212-.033.424-.046.635-.007.079-.01.159-.017.238v.013c-.007.109-.017.219-.023.328s-.013.225-.02.341c-.013.209-.023.417-.033.622l-.03.625c0,.089-.007.182-.01.271s-.007.182-.01.271v.01c-.01.271-.017.543-.023.818,0,.059,0,.119,0,.178-.007.222-.007.447-.01.672v.056H1Zm0,0a71.441,71.441,0,0,1,67.5-70.546c-1.112-.056-2.213-.139-3.312-.248h0c-.139.013-.281.03-.42.043s-.281.03-.42.046c-.218.023-.433.05-.648.076a.1.1,0,0,1-.033,0c-.093.01-.185.023-.278.033-.162.02-.324.04-.483.063l-.371.05c-.189.023-.377.05-.562.079-.076.01-.152.02-.225.033-.251.036-.5.076-.748.116-.278.043-.553.089-.83.136-.126.02-.245.043-.367.063s-.245.043-.367.066l-.324.06q-.283.049-.566.109a.764.764,0,0,0-.076.016c-.251.046-.506.1-.758.152-.328.07-.658.139-.983.212-.043.01-.083.016-.122.03-.175.036-.354.076-.529.119q-.809.189-1.615.394l-.2.05c-.189.046-.377.1-.566.149l-.043.01c-.268.073-.536.146-.8.222-.112.033-.225.063-.334.1l-.334.1c-.007,0-.013,0-.02.007l-.136.04s0,0,0,0l-.43.129a.075.075,0,0,1-.026.007l-.1.03c-.05.017-.1.03-.149.046-.165.049-.331.1-.5.155s-.321.1-.483.152c-.089.026-.179.056-.265.086s-.179.059-.265.086c-.063.02-.126.043-.189.063-.232.076-.463.156-.7.235-.129.043-.255.089-.38.132l-.308.109c-.023.01-.05.016-.076.026-.2.073-.4.142-.6.215-.159.059-.318.116-.473.179-.03.01-.06.023-.086.033-.149.053-.291.109-.437.166q-.357.134-.715.278l-.758.308c-.251.1-.5.208-.754.314-.5.212-1,.43-1.5.652-.248.112-.5.225-.741.341-.089.043-.182.086-.271.125l-.073.033c-.129.063-.261.126-.39.185l-.291.139c-.1.047-.192.093-.288.143-.036.016-.073.033-.109.053a.369.369,0,0,0-.063.033c-.152.073-.3.149-.453.225l-.414.208c-.212.109-.427.218-.639.331-.093.049-.185.1-.278.146s-.182.1-.275.149l-.189.1c-.172.093-.344.185-.513.278-.069.036-.136.073-.2.113l-.056.029c-.172.1-.344.189-.513.288a.718.718,0,0,0-.069.04l-.334.189c-.112.063-.222.129-.334.192s-.232.136-.344.2-.228.136-.344.2l-.073.043c-.013.007-.023.017-.036.023-.248.149-.5.3-.741.45-.182.109-.361.221-.539.334-.285.179-.569.358-.85.543l-.394.255c-.1.07-.208.136-.311.205l-.076.05-.152.1c-.248.165-.5.334-.744.5-.139.1-.278.188-.417.285s-.275.2-.414.291c-.086.06-.169.119-.255.182s-.169.122-.251.182c-.265.192-.533.384-.8.582l-.308.229c-.1.076-.205.155-.308.232-.02.016-.04.029-.06.046-.205.156-.407.311-.609.47-.179.136-.354.275-.529.417a.458.458,0,0,0-.05.036c-.036.03-.073.056-.109.086-.192.152-.384.3-.576.46-.208.169-.417.341-.622.513s-.384.324-.576.486c-.218.185-.433.371-.648.556-.394.344-.784.688-1.168,1.039l-.033.033c-.4.361-.791.728-1.178,1.095-.2.185-.387.371-.579.559q-.576.561-1.141,1.135c-.189.192-.374.384-.559.576s-.371.39-.556.582-.367.39-.549.589c-.165.179-.328.357-.49.539l-.1.109s0,.007-.007.007l-.069.079c-.139.155-.275.307-.41.463-.089.1-.179.2-.265.3s-.175.2-.261.3c-.175.205-.351.407-.523.612s-.344.41-.516.619-.341.417-.51.625-.334.42-.5.632-.337.43-.5.645c-.324.424-.645.85-.956,1.28-.159.218-.318.433-.473.652s-.311.437-.463.659c-.136.192-.268.384-.4.579a.708.708,0,0,0-.043.063.4.4,0,0,1-.033.046c-.116.169-.232.341-.344.51-.043.063-.086.129-.129.2-.083.122-.162.245-.242.367-.01.013-.02.03-.03.043s-.033.056-.053.083a.012.012,0,0,1,0,.007l-.04.06-.073.113c-.129.2-.261.407-.39.612l-.056.086c-.01.013-.017.03-.026.043-.119.192-.238.381-.357.573s-.238.391-.357.585c0,0-.007.007-.007.01-.06.1-.122.2-.179.3-.109.182-.218.364-.324.546-.126.215-.251.43-.374.645-.146.255-.288.51-.433.767-.073.126-.142.255-.212.384s-.142.258-.212.387c-.222.41-.443.827-.655,1.244-.136.265-.271.53-.4.794-.122.245-.242.486-.357.728s-.235.49-.351.734-.228.49-.341.734c0,0,0,0,0,.007-.112.248-.225.5-.334.741s-.218.5-.328.748c-.076.175-.149.347-.222.523-.017.036-.03.072-.046.109-.043.1-.083.2-.126.3-.066.155-.129.314-.2.469-.026.069-.056.139-.083.205-.089.218-.175.44-.261.658-.079.2-.155.4-.232.6a.048.048,0,0,0-.007.02c-.06.152-.116.3-.169.457-.007.016-.01.033-.017.046-.053.139-.1.275-.152.413q-.144.387-.278.775c-.089.258-.179.516-.265.777-.155.463-.308.927-.453,1.393-.043.129-.083.261-.126.394-.007.02-.01.036-.017.056-.056.176-.109.351-.162.53-.033.116-.069.231-.1.344s-.069.231-.1.344c-.01.033-.02.07-.03.1,0,.01-.007.02-.01.033s-.007.023-.01.037c-.033.112-.063.225-.1.337s-.069.248-.1.371-.073.261-.109.394c-.007.02-.01.04-.017.059-.01.036-.02.076-.03.113s-.01.043-.017.066c-.023.093-.05.189-.073.281-.036.136-.069.271-.106.407-.007.023-.013.049-.02.076s-.01.046-.017.069c-.017.069-.036.142-.053.215-.056.222-.112.447-.165.672a1.114,1.114,0,0,0-.026.113c-.05.218-.1.437-.152.652,0,.007,0,.016-.007.023-.007.023-.01.043-.017.066s-.007.03-.01.046c-.06.261-.116.523-.172.784s-.106.5-.155.751-.1.486-.142.731c-.026.139-.053.278-.076.42a.031.031,0,0,0,0,.017c-.033.182-.069.364-.1.549-.05.275-.1.549-.142.827-.089.552-.175,1.108-.251,1.664-.013.093-.023.182-.036.275l-.02.139c-.023.169-.046.338-.066.5-.033.258-.063.516-.1.777s-.063.549-.089.824c-.013.129-.03.261-.04.391s-.026.261-.036.39c0,.007,0,.017,0,.023a.5.5,0,0,0-.007.066q-.035.343-.06.685c-.007.07-.01.139-.017.208-.017.212-.033.424-.046.635-.007.079-.01.159-.017.238v.013c-.007.109-.017.219-.023.328s-.013.225-.02.341c-.013.209-.023.417-.033.622l-.03.625c0,.089-.007.182-.01.271s-.007.182-.01.271v.01c-.01.271-.017.543-.023.818,0,.059,0,.119,0,.178-.007.222-.007.447-.01.672v.056H1Zm0,0a71.441,71.441,0,0,1,67.5-70.546c-1.112-.056-2.213-.139-3.312-.248h0c-.139.013-.281.03-.42.043s-.281.03-.42.046c-.218.023-.433.05-.648.076a.1.1,0,0,1-.033,0c-.093.01-.185.023-.278.033-.162.02-.324.04-.483.063l-.371.05c-.189.023-.377.05-.562.079-.076.01-.152.02-.225.033-.251.036-.5.076-.748.116-.278.043-.553.089-.83.136-.126.02-.245.043-.367.063s-.245.043-.367.066l-.324.06q-.283.049-.566.109a.764.764,0,0,0-.076.016c-.251.046-.506.1-.758.152-.328.07-.658.139-.983.212-.043.01-.083.016-.122.03-.175.036-.354.076-.529.119q-.809.189-1.615.394l-.2.05c-.189.046-.377.1-.566.149l-.043.01c-.268.073-.536.146-.8.222-.112.033-.225.063-.334.1l-.334.1c-.007,0-.013,0-.02.007l-.136.04s0,0,0,0l-.43.129a.075.075,0,0,1-.026.007l-.1.03c-.05.017-.1.03-.149.046-.165.049-.331.1-.5.155s-.321.1-.483.152c-.089.026-.179.056-.265.086s-.179.059-.265.086c-.063.02-.126.043-.189.063-.232.076-.463.156-.7.235-.129.043-.255.089-.38.132l-.308.109c-.023.01-.05.016-.076.026-.2.073-.4.142-.6.215-.159.059-.318.116-.473.179-.03.01-.06.023-.086.033-.149.053-.291.109-.437.166q-.357.134-.715.278l-.758.308c-.251.1-.5.208-.754.314-.5.212-1,.43-1.5.652-.248.112-.5.225-.741.341-.089.043-.182.086-.271.125l-.073.033c-.129.063-.261.126-.39.185l-.291.139c-.1.047-.192.093-.288.143-.036.016-.073.033-.109.053a.369.369,0,0,0-.063.033c-.152.073-.3.149-.453.225l-.414.208c-.212.109-.427.218-.639.331-.093.049-.185.1-.278.146s-.182.1-.275.149l-.189.1c-.172.093-.344.185-.513.278-.069.036-.136.073-.2.113l-.056.029c-.172.1-.344.189-.513.288a.718.718,0,0,0-.069.04l-.334.189c-.112.063-.222.129-.334.192s-.232.136-.344.2-.228.136-.344.2l-.073.043c-.013.007-.023.017-.036.023-.248.149-.5.3-.741.45-.182.109-.361.221-.539.334-.285.179-.569.358-.85.543l-.394.255c-.1.07-.208.136-.311.205l-.076.05-.152.1c-.248.165-.5.334-.744.5-.139.1-.278.188-.417.285s-.275.2-.414.291c-.086.06-.169.119-.255.182s-.169.122-.251.182c-.265.192-.533.384-.8.582l-.308.229c-.1.076-.205.155-.308.232-.02.016-.04.029-.06.046-.205.156-.407.311-.609.47-.179.136-.354.275-.529.417a.458.458,0,0,0-.05.036c-.036.03-.073.056-.109.086-.192.152-.384.3-.576.46-.208.169-.417.341-.622.513s-.384.324-.576.486c-.218.185-.433.371-.648.556-.394.344-.784.688-1.168,1.039l-.033.033c-.4.361-.791.728-1.178,1.095-.2.185-.387.371-.579.559q-.576.561-1.141,1.135c-.189.192-.374.384-.559.576s-.371.39-.556.582-.367.39-.549.589c-.165.179-.328.357-.49.539l-.1.109s0,.007-.007.007l-.069.079c-.139.155-.275.307-.41.463-.089.1-.179.2-.265.3s-.175.2-.261.3c-.175.205-.351.407-.523.612s-.344.41-.516.619-.341.417-.51.625-.334.42-.5.632-.337.43-.5.645c-.324.424-.645.85-.956,1.28-.159.218-.318.433-.473.652s-.311.437-.463.659c-.136.192-.268.384-.4.579a.708.708,0,0,0-.043.063.4.4,0,0,1-.033.046c-.116.169-.232.341-.344.51-.043.063-.086.129-.129.2-.083.122-.162.245-.242.367-.01.013-.02.03-.03.043s-.033.056-.053.083a.012.012,0,0,1,0,.007l-.04.06-.073.113c-.129.2-.261.407-.39.612l-.056.086c-.01.013-.017.03-.026.043-.119.192-.238.381-.357.573s-.238.391-.357.585c0,0-.007.007-.007.01-.06.1-.122.2-.179.3-.109.182-.218.364-.324.546-.126.215-.251.43-.374.645-.146.255-.288.51-.433.767-.073.126-.142.255-.212.384s-.142.258-.212.387c-.222.41-.443.827-.655,1.244-.136.265-.271.53-.4.794-.122.245-.242.486-.357.728s-.235.49-.351.734-.228.49-.341.734c0,0,0,0,0,.007-.112.248-.225.5-.334.741s-.218.5-.328.748c-.076.175-.149.347-.222.523-.017.036-.03.072-.046.109-.043.1-.083.2-.126.3-.066.155-.129.314-.2.469-.026.069-.056.139-.083.205-.089.218-.175.44-.261.658-.079.2-.155.4-.232.6a.048.048,0,0,0-.007.02c-.06.152-.116.3-.169.457-.007.016-.01.033-.017.046-.053.139-.1.275-.152.413q-.144.387-.278.775c-.089.258-.179.516-.265.777-.155.463-.308.927-.453,1.393-.043.129-.083.261-.126.394-.007.02-.01.036-.017.056-.056.176-.109.351-.162.53-.033.116-.069.231-.1.344s-.069.231-.1.344c-.01.033-.02.07-.03.1,0,.01-.007.02-.01.033s-.007.023-.01.037c-.033.112-.063.225-.1.337s-.069.248-.1.371-.073.261-.109.394c-.007.02-.01.04-.017.059-.01.036-.02.076-.03.113s-.01.043-.017.066c-.023.093-.05.189-.073.281-.036.136-.069.271-.106.407-.007.023-.013.049-.02.076s-.01.046-.017.069c-.017.069-.036.142-.053.215-.056.222-.112.447-.165.672a1.114,1.114,0,0,0-.026.113c-.05.218-.1.437-.152.652,0,.007,0,.016-.007.023-.007.023-.01.043-.017.066s-.007.03-.01.046c-.06.261-.116.523-.172.784s-.106.5-.155.751-.1.486-.142.731c-.026.139-.053.278-.076.42a.031.031,0,0,0,0,.017c-.033.182-.069.364-.1.549-.05.275-.1.549-.142.827-.089.552-.175,1.108-.251,1.664-.013.093-.023.182-.036.275l-.02.139c-.023.169-.046.338-.066.5-.033.258-.063.516-.1.777s-.063.549-.089.824c-.013.129-.03.261-.04.391s-.026.261-.036.39c0,.007,0,.017,0,.023a.5.5,0,0,0-.007.066q-.035.343-.06.685c-.007.07-.01.139-.017.208-.017.212-.033.424-.046.635-.007.079-.01.159-.017.238v.013c-.007.109-.017.219-.023.328s-.013.225-.02.341c-.013.209-.023.417-.033.622l-.03.625c0,.089-.007.182-.01.271s-.007.182-.01.271v.01c-.01.271-.017.543-.023.818,0,.059,0,.119,0,.178-.007.222-.007.447-.01.672v.056H1Zm0,0a71.441,71.441,0,0,1,67.5-70.546c-1.112-.056-2.213-.139-3.312-.248h0c-.139.013-.281.03-.42.043s-.281.03-.42.046c-.218.023-.433.05-.648.076a.1.1,0,0,1-.033,0c-.093.01-.185.023-.278.033-.162.02-.324.04-.483.063l-.371.05c-.189.023-.377.05-.562.079-.076.01-.152.02-.225.033-.251.036-.5.076-.748.116-.278.043-.553.089-.83.136-.126.02-.245.043-.367.063s-.245.043-.367.066l-.324.06q-.283.049-.566.109a.764.764,0,0,0-.076.016c-.251.046-.506.1-.758.152-.328.07-.658.139-.983.212-.043.01-.083.016-.122.03-.175.036-.354.076-.529.119q-.809.189-1.615.394l-.2.05c-.189.046-.377.1-.566.149l-.043.01c-.268.073-.536.146-.8.222-.112.033-.225.063-.334.1l-.334.1c-.007,0-.013,0-.02.007l-.136.04s0,0,0,0l-.43.129a.075.075,0,0,1-.026.007l-.1.03c-.05.017-.1.03-.149.046-.165.049-.331.1-.5.155s-.321.1-.483.152c-.089.026-.179.056-.265.086s-.179.059-.265.086c-.063.02-.126.043-.189.063-.232.076-.463.156-.7.235-.129.043-.255.089-.38.132l-.308.109c-.023.01-.05.016-.076.026-.2.073-.4.142-.6.215-.159.059-.318.116-.473.179-.03.01-.06.023-.086.033-.149.053-.291.109-.437.166q-.357.134-.715.278l-.758.308c-.251.1-.5.208-.754.314-.5.212-1,.43-1.5.652-.248.112-.5.225-.741.341-.089.043-.182.086-.271.125l-.073.033c-.129.063-.261.126-.39.185l-.291.139c-.1.047-.192.093-.288.143-.036.016-.073.033-.109.053a.369.369,0,0,0-.063.033c-.152.073-.3.149-.453.225l-.414.208c-.212.109-.427.218-.639.331-.093.049-.185.1-.278.146s-.182.1-.275.149l-.189.1c-.172.093-.344.185-.513.278-.069.036-.136.073-.2.113l-.056.029c-.172.1-.344.189-.513.288a.718.718,0,0,0-.069.04l-.334.189c-.112.063-.222.129-.334.192s-.232.136-.344.2-.228.136-.344.2l-.073.043c-.013.007-.023.017-.036.023-.248.149-.5.3-.741.45-.182.109-.361.221-.539.334-.285.179-.569.358-.85.543l-.394.255c-.1.07-.208.136-.311.205l-.076.05-.152.1c-.248.165-.5.334-.744.5-.139.1-.278.188-.417.285s-.275.2-.414.291c-.086.06-.169.119-.255.182s-.169.122-.251.182c-.265.192-.533.384-.8.582l-.308.229c-.1.076-.205.155-.308.232-.02.016-.04.029-.06.046-.205.156-.407.311-.609.47-.179.136-.354.275-.529.417a.458.458,0,0,0-.05.036c-.036.03-.073.056-.109.086-.192.152-.384.3-.576.46-.208.169-.417.341-.622.513s-.384.324-.576.486c-.218.185-.433.371-.648.556-.394.344-.784.688-1.168,1.039l-.033.033c-.4.361-.791.728-1.178,1.095-.2.185-.387.371-.579.559q-.576.561-1.141,1.135c-.189.192-.374.384-.559.576s-.371.39-.556.582-.367.39-.549.589c-.165.179-.328.357-.49.539l-.1.109s0,.007-.007.007l-.069.079c-.139.155-.275.307-.41.463-.089.1-.179.2-.265.3s-.175.2-.261.3c-.175.205-.351.407-.523.612s-.344.41-.516.619-.341.417-.51.625-.334.42-.5.632-.337.43-.5.645c-.324.424-.645.85-.956,1.28-.159.218-.318.433-.473.652s-.311.437-.463.659c-.136.192-.268.384-.4.579a.708.708,0,0,0-.043.063.4.4,0,0,1-.033.046c-.116.169-.232.341-.344.51-.043.063-.086.129-.129.2-.083.122-.162.245-.242.367-.01.013-.02.03-.03.043s-.033.056-.053.083a.012.012,0,0,1,0,.007l-.04.06-.073.113c-.129.2-.261.407-.39.612l-.056.086c-.01.013-.017.03-.026.043-.119.192-.238.381-.357.573s-.238.391-.357.585c0,0-.007.007-.007.01-.06.1-.122.2-.179.3-.109.182-.218.364-.324.546-.126.215-.251.43-.374.645-.146.255-.288.51-.433.767-.073.126-.142.255-.212.384s-.142.258-.212.387c-.222.41-.443.827-.655,1.244-.136.265-.271.53-.4.794-.122.245-.242.486-.357.728s-.235.49-.351.734-.228.49-.341.734c0,0,0,0,0,.007-.112.248-.225.5-.334.741s-.218.5-.328.748c-.076.175-.149.347-.222.523-.017.036-.03.072-.046.109-.043.1-.083.2-.126.3-.066.155-.129.314-.2.469-.026.069-.056.139-.083.205-.089.218-.175.44-.261.658-.079.2-.155.4-.232.6a.048.048,0,0,0-.007.02c-.06.152-.116.3-.169.457-.007.016-.01.033-.017.046-.053.139-.1.275-.152.413q-.144.387-.278.775c-.089.258-.179.516-.265.777-.155.463-.308.927-.453,1.393-.043.129-.083.261-.126.394-.007.02-.01.036-.017.056-.056.176-.109.351-.162.53-.033.116-.069.231-.1.344s-.069.231-.1.344c-.01.033-.02.07-.03.1,0,.01-.007.02-.01.033s-.007.023-.01.037c-.033.112-.063.225-.1.337s-.069.248-.1.371-.073.261-.109.394c-.007.02-.01.04-.017.059-.01.036-.02.076-.03.113s-.01.043-.017.066c-.023.093-.05.189-.073.281-.036.136-.069.271-.106.407-.007.023-.013.049-.02.076s-.01.046-.017.069c-.017.069-.036.142-.053.215-.056.222-.112.447-.165.672a1.114,1.114,0,0,0-.026.113c-.05.218-.1.437-.152.652,0,.007,0,.016-.007.023-.007.023-.01.043-.017.066s-.007.03-.01.046c-.06.261-.116.523-.172.784s-.106.5-.155.751-.1.486-.142.731c-.026.139-.053.278-.076.42a.031.031,0,0,0,0,.017c-.033.182-.069.364-.1.549-.05.275-.1.549-.142.827-.089.552-.175,1.108-.251,1.664-.013.093-.023.182-.036.275l-.02.139c-.023.169-.046.338-.066.5-.033.258-.063.516-.1.777s-.063.549-.089.824c-.013.129-.03.261-.04.391s-.026.261-.036.39c0,.007,0,.017,0,.023a.5.5,0,0,0-.007.066q-.035.343-.06.685c-.007.07-.01.139-.017.208-.017.212-.033.424-.046.635-.007.079-.01.159-.017.238v.013c-.007.109-.017.219-.023.328s-.013.225-.02.341c-.013.209-.023.417-.033.622l-.03.625c0,.089-.007.182-.01.271s-.007.182-.01.271v.01c-.01.271-.017.543-.023.818,0,.059,0,.119,0,.178-.007.222-.007.447-.01.672v.056H1Zm0,0a71.441,71.441,0,0,1,67.5-70.546c-1.112-.056-2.213-.139-3.312-.248h0c-.139.013-.281.03-.42.043s-.281.03-.42.046c-.218.023-.433.05-.648.076a.1.1,0,0,1-.033,0c-.093.01-.185.023-.278.033-.162.02-.324.04-.483.063l-.371.05c-.189.023-.377.05-.562.079-.076.01-.152.02-.225.033-.251.036-.5.076-.748.116-.278.043-.553.089-.83.136-.126.02-.245.043-.367.063s-.245.043-.367.066l-.324.06q-.283.049-.566.109a.764.764,0,0,0-.076.016c-.251.046-.506.1-.758.152-.328.07-.658.139-.983.212-.043.01-.083.016-.122.03-.175.036-.354.076-.529.119q-.809.189-1.615.394l-.2.05c-.189.046-.377.1-.566.149l-.043.01c-.268.073-.536.146-.8.222-.112.033-.225.063-.334.1l-.334.1c-.007,0-.013,0-.02.007l-.136.04s0,0,0,0l-.43.129a.075.075,0,0,1-.026.007l-.1.03c-.05.017-.1.03-.149.046-.165.049-.331.1-.5.155s-.321.1-.483.152c-.089.026-.179.056-.265.086s-.179.059-.265.086c-.063.02-.126.043-.189.063-.232.076-.463.156-.7.235-.129.043-.255.089-.38.132l-.308.109c-.023.01-.05.016-.076.026-.2.073-.4.142-.6.215-.159.059-.318.116-.473.179-.03.01-.06.023-.086.033-.149.053-.291.109-.437.166q-.357.134-.715.278l-.758.308c-.251.1-.5.208-.754.314-.5.212-1,.43-1.5.652-.248.112-.5.225-.741.341-.089.043-.182.086-.271.125l-.073.033c-.129.063-.261.126-.39.185l-.291.139c-.1.047-.192.093-.288.143-.036.016-.073.033-.109.053a.369.369,0,0,0-.063.033c-.152.073-.3.149-.453.225l-.414.208c-.212.109-.427.218-.639.331-.093.049-.185.1-.278.146s-.182.1-.275.149l-.189.1c-.172.093-.344.185-.513.278-.069.036-.136.073-.2.113l-.056.029c-.172.1-.344.189-.513.288a.718.718,0,0,0-.069.04l-.334.189c-.112.063-.222.129-.334.192s-.232.136-.344.2-.228.136-.344.2l-.073.043c-.013.007-.023.017-.036.023-.248.149-.5.3-.741.45-.182.109-.361.221-.539.334-.285.179-.569.358-.85.543l-.394.255c-.1.07-.208.136-.311.205l-.076.05-.152.1c-.248.165-.5.334-.744.5-.139.1-.278.188-.417.285s-.275.2-.414.291c-.086.06-.169.119-.255.182s-.169.122-.251.182c-.265.192-.533.384-.8.582l-.308.229c-.1.076-.205.155-.308.232-.02.016-.04.029-.06.046-.205.156-.407.311-.609.47-.179.136-.354.275-.529.417a.458.458,0,0,0-.05.036c-.036.03-.073.056-.109.086-.192.152-.384.3-.576.46-.208.169-.417.341-.622.513s-.384.324-.576.486c-.218.185-.433.371-.648.556-.394.344-.784.688-1.168,1.039l-.033.033c-.4.361-.791.728-1.178,1.095-.2.185-.387.371-.579.559q-.576.561-1.141,1.135c-.189.192-.374.384-.559.576s-.371.39-.556.582-.367.39-.549.589c-.165.179-.328.357-.49.539l-.1.109s0,.007-.007.007l-.069.079c-.139.155-.275.307-.41.463-.089.1-.179.2-.265.3s-.175.2-.261.3c-.175.205-.351.407-.523.612s-.344.41-.516.619-.341.417-.51.625-.334.42-.5.632-.337.43-.5.645c-.324.424-.645.85-.956,1.28-.159.218-.318.433-.473.652s-.311.437-.463.659c-.136.192-.268.384-.4.579a.708.708,0,0,0-.043.063.4.4,0,0,1-.033.046c-.116.169-.232.341-.344.51-.043.063-.086.129-.129.2-.083.122-.162.245-.242.367-.01.013-.02.03-.03.043s-.033.056-.053.083a.012.012,0,0,1,0,.007l-.04.06-.073.113c-.129.2-.261.407-.39.612l-.056.086c-.01.013-.017.03-.026.043-.119.192-.238.381-.357.573s-.238.391-.357.585c0,0-.007.007-.007.01-.06.1-.122.2-.179.3-.109.182-.218.364-.324.546-.126.215-.251.43-.374.645-.146.255-.288.51-.433.767-.073.126-.142.255-.212.384s-.142.258-.212.387c-.222.41-.443.827-.655,1.244-.136.265-.271.53-.4.794-.122.245-.242.486-.357.728s-.235.49-.351.734-.228.49-.341.734c0,0,0,0,0,.007-.112.248-.225.5-.334.741s-.218.5-.328.748c-.076.175-.149.347-.222.523-.017.036-.03.072-.046.109-.043.1-.083.2-.126.3-.066.155-.129.314-.2.469-.026.069-.056.139-.083.205-.089.218-.175.44-.261.658-.079.2-.155.4-.232.6a.048.048,0,0,0-.007.02c-.06.152-.116.3-.169.457-.007.016-.01.033-.017.046-.053.139-.1.275-.152.413q-.144.387-.278.775c-.089.258-.179.516-.265.777-.155.463-.308.927-.453,1.393-.043.129-.083.261-.126.394-.007.02-.01.036-.017.056-.056.176-.109.351-.162.53-.033.116-.069.231-.1.344s-.069.231-.1.344c-.01.033-.02.07-.03.1,0,.01-.007.02-.01.033s-.007.023-.01.037c-.033.112-.063.225-.1.337s-.069.248-.1.371-.073.261-.109.394c-.007.02-.01.04-.017.059-.01.036-.02.076-.03.113s-.01.043-.017.066c-.023.093-.05.189-.073.281-.036.136-.069.271-.106.407-.007.023-.013.049-.02.076s-.01.046-.017.069c-.017.069-.036.142-.053.215-.056.222-.112.447-.165.672a1.114,1.114,0,0,0-.026.113c-.05.218-.1.437-.152.652,0,.007,0,.016-.007.023-.007.023-.01.043-.017.066s-.007.03-.01.046c-.06.261-.116.523-.172.784s-.106.5-.155.751-.1.486-.142.731c-.026.139-.053.278-.076.42a.031.031,0,0,0,0,.017c-.033.182-.069.364-.1.549-.05.275-.1.549-.142.827-.089.552-.175,1.108-.251,1.664-.013.093-.023.182-.036.275l-.02.139c-.023.169-.046.338-.066.5-.033.258-.063.516-.1.777s-.063.549-.089.824c-.013.129-.03.261-.04.391s-.026.261-.036.39c0,.007,0,.017,0,.023a.5.5,0,0,0-.007.066q-.035.343-.06.685c-.007.07-.01.139-.017.208-.017.212-.033.424-.046.635-.007.079-.01.159-.017.238v.013c-.007.109-.017.219-.023.328s-.013.225-.02.341c-.013.209-.023.417-.033.622l-.03.625c0,.089-.007.182-.01.271s-.007.182-.01.271v.01c-.01.271-.017.543-.023.818,0,.059,0,.119,0,.178-.007.222-.007.447-.01.672v.056H1Zm71.853,1.2V1957.74h-.5c-.235,0-.47,0-.7,0a73.827,73.827,0,0,0-8.645.6,72.469,72.469,0,0,0-63,71.049c0,.069,0,.136,0,.205,0,.165,0,.331,0,.5v.5ZM1,2029.384a71.441,71.441,0,0,1,67.5-70.546q1.563-.084,3.143-.1c.069,0,.139,0,.208,0v70.857H1Zm0,0a71.441,71.441,0,0,1,67.5-70.546c-1.112-.056-2.213-.139-3.312-.248h0c-.139.013-.281.03-.42.043s-.281.03-.42.046c-.218.023-.433.05-.648.076a.1.1,0,0,1-.033,0c-.093.01-.185.023-.278.033-.162.02-.324.04-.483.063l-.371.05c-.189.023-.377.05-.562.079-.076.01-.152.02-.225.033-.251.036-.5.076-.748.116-.278.043-.553.089-.83.136-.126.02-.245.043-.367.063s-.245.043-.367.066l-.324.06q-.283.049-.566.109a.764.764,0,0,0-.076.016c-.251.046-.506.1-.758.152-.328.07-.658.139-.983.212-.043.01-.083.016-.122.03-.175.036-.354.076-.529.119q-.809.189-1.615.394l-.2.05c-.189.046-.377.1-.566.149l-.043.01c-.268.073-.536.146-.8.222-.112.033-.225.063-.334.1l-.334.1c-.007,0-.013,0-.02.007l-.136.04s0,0,0,0l-.43.129a.075.075,0,0,1-.026.007l-.1.03c-.05.017-.1.03-.149.046-.165.049-.331.1-.5.155s-.321.1-.483.152c-.089.026-.179.056-.265.086s-.179.059-.265.086c-.063.02-.126.043-.189.063-.232.076-.463.156-.7.235-.129.043-.255.089-.38.132l-.308.109c-.023.01-.05.016-.076.026-.2.073-.4.142-.6.215-.159.059-.318.116-.473.179-.03.01-.06.023-.086.033-.149.053-.291.109-.437.166q-.357.134-.715.278l-.758.308c-.251.1-.5.208-.754.314-.5.212-1,.43-1.5.652-.248.112-.5.225-.741.341-.089.043-.182.086-.271.125l-.073.033c-.129.063-.261.126-.39.185l-.291.139c-.1.047-.192.093-.288.143-.036.016-.073.033-.109.053a.369.369,0,0,0-.063.033c-.152.073-.3.149-.453.225l-.414.208c-.212.109-.427.218-.639.331-.093.049-.185.1-.278.146s-.182.1-.275.149l-.189.1c-.172.093-.344.185-.513.278-.069.036-.136.073-.2.113l-.056.029c-.172.1-.344.189-.513.288a.718.718,0,0,0-.069.04l-.334.189c-.112.063-.222.129-.334.192s-.232.136-.344.2-.228.136-.344.2l-.073.043c-.013.007-.023.017-.036.023-.248.149-.5.3-.741.45-.182.109-.361.221-.539.334-.285.179-.569.358-.85.543l-.394.255c-.1.07-.208.136-.311.205l-.076.05-.152.1c-.248.165-.5.334-.744.5-.139.1-.278.188-.417.285s-.275.2-.414.291c-.086.06-.169.119-.255.182s-.169.122-.251.182c-.265.192-.533.384-.8.582l-.308.229c-.1.076-.205.155-.308.232-.02.016-.04.029-.06.046-.205.156-.407.311-.609.47-.179.136-.354.275-.529.417a.458.458,0,0,0-.05.036c-.036.03-.073.056-.109.086-.192.152-.384.3-.576.46-.208.169-.417.341-.622.513s-.384.324-.576.486c-.218.185-.433.371-.648.556-.394.344-.784.688-1.168,1.039l-.033.033c-.4.361-.791.728-1.178,1.095-.2.185-.387.371-.579.559q-.576.561-1.141,1.135c-.189.192-.374.384-.559.576s-.371.39-.556.582-.367.39-.549.589c-.165.179-.328.357-.49.539l-.1.109s0,.007-.007.007l-.069.079c-.139.155-.275.307-.41.463-.089.1-.179.2-.265.3s-.175.2-.261.3c-.175.205-.351.407-.523.612s-.344.41-.516.619-.341.417-.51.625-.334.42-.5.632-.337.43-.5.645c-.324.424-.645.85-.956,1.28-.159.218-.318.433-.473.652s-.311.437-.463.659c-.136.192-.268.384-.4.579a.708.708,0,0,0-.043.063.4.4,0,0,1-.033.046c-.116.169-.232.341-.344.51-.043.063-.086.129-.129.2-.083.122-.162.245-.242.367-.01.013-.02.03-.03.043s-.033.056-.053.083a.012.012,0,0,1,0,.007l-.04.06-.073.113c-.129.2-.261.407-.39.612l-.056.086c-.01.013-.017.03-.026.043-.119.192-.238.381-.357.573s-.238.391-.357.585c0,0-.007.007-.007.01-.06.1-.122.2-.179.3-.109.182-.218.364-.324.546-.126.215-.251.43-.374.645-.146.255-.288.51-.433.767-.073.126-.142.255-.212.384s-.142.258-.212.387c-.222.41-.443.827-.655,1.244-.136.265-.271.53-.4.794-.122.245-.242.486-.357.728s-.235.49-.351.734-.228.49-.341.734c0,0,0,0,0,.007-.112.248-.225.5-.334.741s-.218.5-.328.748c-.076.175-.149.347-.222.523-.017.036-.03.072-.046.109-.043.1-.083.2-.126.3-.066.155-.129.314-.2.469-.026.069-.056.139-.083.205-.089.218-.175.44-.261.658-.079.2-.155.4-.232.6a.048.048,0,0,0-.007.02c-.06.152-.116.3-.169.457-.007.016-.01.033-.017.046-.053.139-.1.275-.152.413q-.144.387-.278.775c-.089.258-.179.516-.265.777-.155.463-.308.927-.453,1.393-.043.129-.083.261-.126.394-.007.02-.01.036-.017.056-.056.176-.109.351-.162.53-.033.116-.069.231-.1.344s-.069.231-.1.344c-.01.033-.02.07-.03.1,0,.01-.007.02-.01.033s-.007.023-.01.037c-.033.112-.063.225-.1.337s-.069.248-.1.371-.073.261-.109.394c-.007.02-.01.04-.017.059-.01.036-.02.076-.03.113s-.01.043-.017.066c-.023.093-.05.189-.073.281-.036.136-.069.271-.106.407-.007.023-.013.049-.02.076s-.01.046-.017.069c-.017.069-.036.142-.053.215-.056.222-.112.447-.165.672a1.114,1.114,0,0,0-.026.113c-.05.218-.1.437-.152.652,0,.007,0,.016-.007.023-.007.023-.01.043-.017.066s-.007.03-.01.046c-.06.261-.116.523-.172.784s-.106.5-.155.751-.1.486-.142.731c-.026.139-.053.278-.076.42a.031.031,0,0,0,0,.017c-.033.182-.069.364-.1.549-.05.275-.1.549-.142.827-.089.552-.175,1.108-.251,1.664-.013.093-.023.182-.036.275l-.02.139c-.023.169-.046.338-.066.5-.033.258-.063.516-.1.777s-.063.549-.089.824c-.013.129-.03.261-.04.391s-.026.261-.036.39c0,.007,0,.017,0,.023a.5.5,0,0,0-.007.066q-.035.343-.06.685c-.007.07-.01.139-.017.208-.017.212-.033.424-.046.635-.007.079-.01.159-.017.238v.013c-.007.109-.017.219-.023.328s-.013.225-.02.341c-.013.209-.023.417-.033.622l-.03.625c0,.089-.007.182-.01.271s-.007.182-.01.271v.01c-.01.271-.017.543-.023.818,0,.059,0,.119,0,.178-.007.222-.007.447-.01.672v.056H1Zm0,0a71.441,71.441,0,0,1,67.5-70.546c-1.112-.056-2.213-.139-3.312-.248h0c-.139.013-.281.03-.42.043s-.281.03-.42.046c-.218.023-.433.05-.648.076a.1.1,0,0,1-.033,0c-.093.01-.185.023-.278.033-.162.02-.324.04-.483.063l-.371.05c-.189.023-.377.05-.562.079-.076.01-.152.02-.225.033-.251.036-.5.076-.748.116-.278.043-.553.089-.83.136-.126.02-.245.043-.367.063s-.245.043-.367.066l-.324.06q-.283.049-.566.109a.764.764,0,0,0-.076.016c-.251.046-.506.1-.758.152-.328.07-.658.139-.983.212-.043.01-.083.016-.122.03-.175.036-.354.076-.529.119q-.809.189-1.615.394l-.2.05c-.189.046-.377.1-.566.149l-.043.01c-.268.073-.536.146-.8.222-.112.033-.225.063-.334.1l-.334.1c-.007,0-.013,0-.02.007l-.136.04s0,0,0,0l-.43.129a.075.075,0,0,1-.026.007l-.1.03c-.05.017-.1.03-.149.046-.165.049-.331.1-.5.155s-.321.1-.483.152c-.089.026-.179.056-.265.086s-.179.059-.265.086c-.063.02-.126.043-.189.063-.232.076-.463.156-.7.235-.129.043-.255.089-.38.132l-.308.109c-.023.01-.05.016-.076.026-.2.073-.4.142-.6.215-.159.059-.318.116-.473.179-.03.01-.06.023-.086.033-.149.053-.291.109-.437.166q-.357.134-.715.278l-.758.308c-.251.1-.5.208-.754.314-.5.212-1,.43-1.5.652-.248.112-.5.225-.741.341-.089.043-.182.086-.271.125l-.073.033c-.129.063-.261.126-.39.185l-.291.139c-.1.047-.192.093-.288.143-.036.016-.073.033-.109.053a.369.369,0,0,0-.063.033c-.152.073-.3.149-.453.225l-.414.208c-.212.109-.427.218-.639.331-.093.049-.185.1-.278.146s-.182.1-.275.149l-.189.1c-.172.093-.344.185-.513.278-.069.036-.136.073-.2.113l-.056.029c-.172.1-.344.189-.513.288a.718.718,0,0,0-.069.04l-.334.189c-.112.063-.222.129-.334.192s-.232.136-.344.2-.228.136-.344.2l-.073.043c-.013.007-.023.017-.036.023-.248.149-.5.3-.741.45-.182.109-.361.221-.539.334-.285.179-.569.358-.85.543l-.394.255c-.1.07-.208.136-.311.205l-.076.05-.152.1c-.248.165-.5.334-.744.5-.139.1-.278.188-.417.285s-.275.2-.414.291c-.086.06-.169.119-.255.182s-.169.122-.251.182c-.265.192-.533.384-.8.582l-.308.229c-.1.076-.205.155-.308.232-.02.016-.04.029-.06.046-.205.156-.407.311-.609.47-.179.136-.354.275-.529.417a.458.458,0,0,0-.05.036c-.036.03-.073.056-.109.086-.192.152-.384.3-.576.46-.208.169-.417.341-.622.513s-.384.324-.576.486c-.218.185-.433.371-.648.556-.394.344-.784.688-1.168,1.039l-.033.033c-.4.361-.791.728-1.178,1.095-.2.185-.387.371-.579.559q-.576.561-1.141,1.135c-.189.192-.374.384-.559.576s-.371.39-.556.582-.367.39-.549.589c-.165.179-.328.357-.49.539l-.1.109s0,.007-.007.007l-.069.079c-.139.155-.275.307-.41.463-.089.1-.179.2-.265.3s-.175.2-.261.3c-.175.205-.351.407-.523.612s-.344.41-.516.619-.341.417-.51.625-.334.42-.5.632-.337.43-.5.645c-.324.424-.645.85-.956,1.28-.159.218-.318.433-.473.652s-.311.437-.463.659c-.136.192-.268.384-.4.579a.708.708,0,0,0-.043.063.4.4,0,0,1-.033.046c-.116.169-.232.341-.344.51-.043.063-.086.129-.129.2-.083.122-.162.245-.242.367-.01.013-.02.03-.03.043s-.033.056-.053.083a.012.012,0,0,1,0,.007l-.04.06-.073.113c-.129.2-.261.407-.39.612l-.056.086c-.01.013-.017.03-.026.043-.119.192-.238.381-.357.573s-.238.391-.357.585c0,0-.007.007-.007.01-.06.1-.122.2-.179.3-.109.182-.218.364-.324.546-.126.215-.251.43-.374.645-.146.255-.288.51-.433.767-.073.126-.142.255-.212.384s-.142.258-.212.387c-.222.41-.443.827-.655,1.244-.136.265-.271.53-.4.794-.122.245-.242.486-.357.728s-.235.49-.351.734-.228.49-.341.734c0,0,0,0,0,.007-.112.248-.225.5-.334.741s-.218.5-.328.748c-.076.175-.149.347-.222.523-.017.036-.03.072-.046.109-.043.1-.083.2-.126.3-.066.155-.129.314-.2.469-.026.069-.056.139-.083.205-.089.218-.175.44-.261.658-.079.2-.155.4-.232.6a.048.048,0,0,0-.007.02c-.06.152-.116.3-.169.457-.007.016-.01.033-.017.046-.053.139-.1.275-.152.413q-.144.387-.278.775c-.089.258-.179.516-.265.777-.155.463-.308.927-.453,1.393-.043.129-.083.261-.126.394-.007.02-.01.036-.017.056-.056.176-.109.351-.162.53-.033.116-.069.231-.1.344s-.069.231-.1.344c-.01.033-.02.07-.03.1,0,.01-.007.02-.01.033s-.007.023-.01.037c-.033.112-.063.225-.1.337s-.069.248-.1.371-.073.261-.109.394c-.007.02-.01.04-.017.059-.01.036-.02.076-.03.113s-.01.043-.017.066c-.023.093-.05.189-.073.281-.036.136-.069.271-.106.407-.007.023-.013.049-.02.076s-.01.046-.017.069c-.017.069-.036.142-.053.215-.056.222-.112.447-.165.672a1.114,1.114,0,0,0-.026.113c-.05.218-.1.437-.152.652,0,.007,0,.016-.007.023-.007.023-.01.043-.017.066s-.007.03-.01.046c-.06.261-.116.523-.172.784s-.106.5-.155.751-.1.486-.142.731c-.026.139-.053.278-.076.42a.031.031,0,0,0,0,.017c-.033.182-.069.364-.1.549-.05.275-.1.549-.142.827-.089.552-.175,1.108-.251,1.664-.013.093-.023.182-.036.275l-.02.139c-.023.169-.046.338-.066.5-.033.258-.063.516-.1.777s-.063.549-.089.824c-.013.129-.03.261-.04.391s-.026.261-.036.39c0,.007,0,.017,0,.023a.5.5,0,0,0-.007.066q-.035.343-.06.685c-.007.07-.01.139-.017.208-.017.212-.033.424-.046.635-.007.079-.01.159-.017.238v.013c-.007.109-.017.219-.023.328s-.013.225-.02.341c-.013.209-.023.417-.033.622l-.03.625c0,.089-.007.182-.01.271s-.007.182-.01.271v.01c-.01.271-.017.543-.023.818,0,.059,0,.119,0,.178-.007.222-.007.447-.01.672v.056H1Zm0,0a71.441,71.441,0,0,1,67.5-70.546c-1.112-.056-2.213-.139-3.312-.248h0c-.139.013-.281.03-.42.043s-.281.03-.42.046c-.218.023-.433.05-.648.076a.1.1,0,0,1-.033,0c-.093.01-.185.023-.278.033-.162.02-.324.04-.483.063l-.371.05c-.189.023-.377.05-.562.079-.076.01-.152.02-.225.033-.251.036-.5.076-.748.116-.278.043-.553.089-.83.136-.126.02-.245.043-.367.063s-.245.043-.367.066l-.324.06q-.283.049-.566.109a.764.764,0,0,0-.076.016c-.251.046-.506.1-.758.152-.328.07-.658.139-.983.212-.043.01-.083.016-.122.03-.175.036-.354.076-.529.119q-.809.189-1.615.394l-.2.05c-.189.046-.377.1-.566.149l-.043.01c-.268.073-.536.146-.8.222-.112.033-.225.063-.334.1l-.334.1c-.007,0-.013,0-.02.007l-.136.04s0,0,0,0l-.43.129a.075.075,0,0,1-.026.007l-.1.03c-.05.017-.1.03-.149.046-.165.049-.331.1-.5.155s-.321.1-.483.152c-.089.026-.179.056-.265.086s-.179.059-.265.086c-.063.02-.126.043-.189.063-.232.076-.463.156-.7.235-.129.043-.255.089-.38.132l-.308.109c-.023.01-.05.016-.076.026-.2.073-.4.142-.6.215-.159.059-.318.116-.473.179-.03.01-.06.023-.086.033-.149.053-.291.109-.437.166q-.357.134-.715.278l-.758.308c-.251.1-.5.208-.754.314-.5.212-1,.43-1.5.652-.248.112-.5.225-.741.341-.089.043-.182.086-.271.125l-.073.033c-.129.063-.261.126-.39.185l-.291.139c-.1.047-.192.093-.288.143-.036.016-.073.033-.109.053a.369.369,0,0,0-.063.033c-.152.073-.3.149-.453.225l-.414.208c-.212.109-.427.218-.639.331-.093.049-.185.1-.278.146s-.182.1-.275.149l-.189.1c-.172.093-.344.185-.513.278-.069.036-.136.073-.2.113l-.056.029c-.172.1-.344.189-.513.288a.718.718,0,0,0-.069.04l-.334.189c-.112.063-.222.129-.334.192s-.232.136-.344.2-.228.136-.344.2l-.073.043c-.013.007-.023.017-.036.023-.248.149-.5.3-.741.45-.182.109-.361.221-.539.334-.285.179-.569.358-.85.543l-.394.255c-.1.07-.208.136-.311.205l-.076.05-.152.1c-.248.165-.5.334-.744.5-.139.1-.278.188-.417.285s-.275.2-.414.291c-.086.06-.169.119-.255.182s-.169.122-.251.182c-.265.192-.533.384-.8.582l-.308.229c-.1.076-.205.155-.308.232-.02.016-.04.029-.06.046-.205.156-.407.311-.609.47-.179.136-.354.275-.529.417a.458.458,0,0,0-.05.036c-.036.03-.073.056-.109.086-.192.152-.384.3-.576.46-.208.169-.417.341-.622.513s-.384.324-.576.486c-.218.185-.433.371-.648.556-.394.344-.784.688-1.168,1.039l-.033.033c-.4.361-.791.728-1.178,1.095-.2.185-.387.371-.579.559q-.576.561-1.141,1.135c-.189.192-.374.384-.559.576s-.371.39-.556.582-.367.39-.549.589c-.165.179-.328.357-.49.539l-.1.109s0,.007-.007.007l-.069.079c-.139.155-.275.307-.41.463-.089.1-.179.2-.265.3s-.175.2-.261.3c-.175.205-.351.407-.523.612s-.344.41-.516.619-.341.417-.51.625-.334.42-.5.632-.337.43-.5.645c-.324.424-.645.85-.956,1.28-.159.218-.318.433-.473.652s-.311.437-.463.659c-.136.192-.268.384-.4.579a.708.708,0,0,0-.043.063.4.4,0,0,1-.033.046c-.116.169-.232.341-.344.51-.043.063-.086.129-.129.2-.083.122-.162.245-.242.367-.01.013-.02.03-.03.043s-.033.056-.053.083a.012.012,0,0,1,0,.007l-.04.06-.073.113c-.129.2-.261.407-.39.612l-.056.086c-.01.013-.017.03-.026.043-.119.192-.238.381-.357.573s-.238.391-.357.585c0,0-.007.007-.007.01-.06.1-.122.2-.179.3-.109.182-.218.364-.324.546-.126.215-.251.43-.374.645-.146.255-.288.51-.433.767-.073.126-.142.255-.212.384s-.142.258-.212.387c-.222.41-.443.827-.655,1.244-.136.265-.271.53-.4.794-.122.245-.242.486-.357.728s-.235.49-.351.734-.228.49-.341.734c0,0,0,0,0,.007-.112.248-.225.5-.334.741s-.218.5-.328.748c-.076.175-.149.347-.222.523-.017.036-.03.072-.046.109-.043.1-.083.2-.126.3-.066.155-.129.314-.2.469-.026.069-.056.139-.083.205-.089.218-.175.44-.261.658-.079.2-.155.4-.232.6a.048.048,0,0,0-.007.02c-.06.152-.116.3-.169.457-.007.016-.01.033-.017.046-.053.139-.1.275-.152.413q-.144.387-.278.775c-.089.258-.179.516-.265.777-.155.463-.308.927-.453,1.393-.043.129-.083.261-.126.394-.007.02-.01.036-.017.056-.056.176-.109.351-.162.53-.033.116-.069.231-.1.344s-.069.231-.1.344c-.01.033-.02.07-.03.1,0,.01-.007.02-.01.033s-.007.023-.01.037c-.033.112-.063.225-.1.337s-.069.248-.1.371-.073.261-.109.394c-.007.02-.01.04-.017.059-.01.036-.02.076-.03.113s-.01.043-.017.066c-.023.093-.05.189-.073.281-.036.136-.069.271-.106.407-.007.023-.013.049-.02.076s-.01.046-.017.069c-.017.069-.036.142-.053.215-.056.222-.112.447-.165.672a1.114,1.114,0,0,0-.026.113c-.05.218-.1.437-.152.652,0,.007,0,.016-.007.023-.007.023-.01.043-.017.066s-.007.03-.01.046c-.06.261-.116.523-.172.784s-.106.5-.155.751-.1.486-.142.731c-.026.139-.053.278-.076.42a.031.031,0,0,0,0,.017c-.033.182-.069.364-.1.549-.05.275-.1.549-.142.827-.089.552-.175,1.108-.251,1.664-.013.093-.023.182-.036.275l-.02.139c-.023.169-.046.338-.066.5-.033.258-.063.516-.1.777s-.063.549-.089.824c-.013.129-.03.261-.04.391s-.026.261-.036.39c0,.007,0,.017,0,.023a.5.5,0,0,0-.007.066q-.035.343-.06.685c-.007.07-.01.139-.017.208-.017.212-.033.424-.046.635-.007.079-.01.159-.017.238v.013c-.007.109-.017.219-.023.328s-.013.225-.02.341c-.013.209-.023.417-.033.622l-.03.625c0,.089-.007.182-.01.271s-.007.182-.01.271v.01c-.01.271-.017.543-.023.818,0,.059,0,.119,0,.178-.007.222-.007.447-.01.672v.056H1Zm0,0a71.441,71.441,0,0,1,67.5-70.546c-1.112-.056-2.213-.139-3.312-.248h0c-.139.013-.281.03-.42.043s-.281.03-.42.046c-.218.023-.433.05-.648.076a.1.1,0,0,1-.033,0c-.093.01-.185.023-.278.033-.162.02-.324.04-.483.063l-.371.05c-.189.023-.377.05-.562.079-.076.01-.152.02-.225.033-.251.036-.5.076-.748.116-.278.043-.553.089-.83.136-.126.02-.245.043-.367.063s-.245.043-.367.066l-.324.06q-.283.049-.566.109a.764.764,0,0,0-.076.016c-.251.046-.506.1-.758.152-.328.07-.658.139-.983.212-.043.01-.083.016-.122.03-.175.036-.354.076-.529.119q-.809.189-1.615.394l-.2.05c-.189.046-.377.1-.566.149l-.043.01c-.268.073-.536.146-.8.222-.112.033-.225.063-.334.1l-.334.1c-.007,0-.013,0-.02.007l-.136.04s0,0,0,0l-.43.129a.075.075,0,0,1-.026.007l-.1.03c-.05.017-.1.03-.149.046-.165.049-.331.1-.5.155s-.321.1-.483.152c-.089.026-.179.056-.265.086s-.179.059-.265.086c-.063.02-.126.043-.189.063-.232.076-.463.156-.7.235-.129.043-.255.089-.38.132l-.308.109c-.023.01-.05.016-.076.026-.2.073-.4.142-.6.215-.159.059-.318.116-.473.179-.03.01-.06.023-.086.033-.149.053-.291.109-.437.166q-.357.134-.715.278l-.758.308c-.251.1-.5.208-.754.314-.5.212-1,.43-1.5.652-.248.112-.5.225-.741.341-.089.043-.182.086-.271.125l-.073.033c-.129.063-.261.126-.39.185l-.291.139c-.1.047-.192.093-.288.143-.036.016-.073.033-.109.053a.369.369,0,0,0-.063.033c-.152.073-.3.149-.453.225l-.414.208c-.212.109-.427.218-.639.331-.093.049-.185.1-.278.146s-.182.1-.275.149l-.189.1c-.172.093-.344.185-.513.278-.069.036-.136.073-.2.113l-.056.029c-.172.1-.344.189-.513.288a.718.718,0,0,0-.069.04l-.334.189c-.112.063-.222.129-.334.192s-.232.136-.344.2-.228.136-.344.2l-.073.043c-.013.007-.023.017-.036.023-.248.149-.5.3-.741.45-.182.109-.361.221-.539.334-.285.179-.569.358-.85.543l-.394.255c-.1.07-.208.136-.311.205l-.076.05-.152.1c-.248.165-.5.334-.744.5-.139.1-.278.188-.417.285s-.275.2-.414.291c-.086.06-.169.119-.255.182s-.169.122-.251.182c-.265.192-.533.384-.8.582l-.308.229c-.1.076-.205.155-.308.232-.02.016-.04.029-.06.046-.205.156-.407.311-.609.47-.179.136-.354.275-.529.417a.458.458,0,0,0-.05.036c-.036.03-.073.056-.109.086-.192.152-.384.3-.576.46-.208.169-.417.341-.622.513s-.384.324-.576.486c-.218.185-.433.371-.648.556-.394.344-.784.688-1.168,1.039l-.033.033c-.4.361-.791.728-1.178,1.095-.2.185-.387.371-.579.559q-.576.561-1.141,1.135c-.189.192-.374.384-.559.576s-.371.39-.556.582-.367.39-.549.589c-.165.179-.328.357-.49.539l-.1.109s0,.007-.007.007l-.069.079c-.139.155-.275.307-.41.463-.089.1-.179.2-.265.3s-.175.2-.261.3c-.175.205-.351.407-.523.612s-.344.41-.516.619-.341.417-.51.625-.334.42-.5.632-.337.43-.5.645c-.324.424-.645.85-.956,1.28-.159.218-.318.433-.473.652s-.311.437-.463.659c-.136.192-.268.384-.4.579a.708.708,0,0,0-.043.063.4.4,0,0,1-.033.046c-.116.169-.232.341-.344.51-.043.063-.086.129-.129.2-.083.122-.162.245-.242.367-.01.013-.02.03-.03.043s-.033.056-.053.083a.012.012,0,0,1,0,.007l-.04.06-.073.113c-.129.2-.261.407-.39.612l-.056.086c-.01.013-.017.03-.026.043-.119.192-.238.381-.357.573s-.238.391-.357.585c0,0-.007.007-.007.01-.06.1-.122.2-.179.3-.109.182-.218.364-.324.546-.126.215-.251.43-.374.645-.146.255-.288.51-.433.767-.073.126-.142.255-.212.384s-.142.258-.212.387c-.222.41-.443.827-.655,1.244-.136.265-.271.53-.4.794-.122.245-.242.486-.357.728s-.235.49-.351.734-.228.49-.341.734c0,0,0,0,0,.007-.112.248-.225.5-.334.741s-.218.5-.328.748c-.076.175-.149.347-.222.523-.017.036-.03.072-.046.109-.043.1-.083.2-.126.3-.066.155-.129.314-.2.469-.026.069-.056.139-.083.205-.089.218-.175.44-.261.658-.079.2-.155.4-.232.6a.048.048,0,0,0-.007.02c-.06.152-.116.3-.169.457-.007.016-.01.033-.017.046-.053.139-.1.275-.152.413q-.144.387-.278.775c-.089.258-.179.516-.265.777-.155.463-.308.927-.453,1.393-.043.129-.083.261-.126.394-.007.02-.01.036-.017.056-.056.176-.109.351-.162.53-.033.116-.069.231-.1.344s-.069.231-.1.344c-.01.033-.02.07-.03.1,0,.01-.007.02-.01.033s-.007.023-.01.037c-.033.112-.063.225-.1.337s-.069.248-.1.371-.073.261-.109.394c-.007.02-.01.04-.017.059-.01.036-.02.076-.03.113s-.01.043-.017.066c-.023.093-.05.189-.073.281-.036.136-.069.271-.106.407-.007.023-.013.049-.02.076s-.01.046-.017.069c-.017.069-.036.142-.053.215-.056.222-.112.447-.165.672a1.114,1.114,0,0,0-.026.113c-.05.218-.1.437-.152.652,0,.007,0,.016-.007.023-.007.023-.01.043-.017.066s-.007.03-.01.046c-.06.261-.116.523-.172.784s-.106.5-.155.751-.1.486-.142.731c-.026.139-.053.278-.076.42a.031.031,0,0,0,0,.017c-.033.182-.069.364-.1.549-.05.275-.1.549-.142.827-.089.552-.175,1.108-.251,1.664-.013.093-.023.182-.036.275l-.02.139c-.023.169-.046.338-.066.5-.033.258-.063.516-.1.777s-.063.549-.089.824c-.013.129-.03.261-.04.391s-.026.261-.036.39c0,.007,0,.017,0,.023a.5.5,0,0,0-.007.066q-.035.343-.06.685c-.007.07-.01.139-.017.208-.017.212-.033.424-.046.635-.007.079-.01.159-.017.238v.013c-.007.109-.017.219-.023.328s-.013.225-.02.341c-.013.209-.023.417-.033.622l-.03.625c0,.089-.007.182-.01.271s-.007.182-.01.271v.01c-.01.271-.017.543-.023.818,0,.059,0,.119,0,.178-.007.222-.007.447-.01.672v.056H1Zm0,0a71.441,71.441,0,0,1,67.5-70.546c-1.112-.056-2.213-.139-3.312-.248h0c-.139.013-.281.03-.42.043s-.281.03-.42.046c-.218.023-.433.05-.648.076a.1.1,0,0,1-.033,0c-.093.01-.185.023-.278.033-.162.02-.324.04-.483.063l-.371.05c-.189.023-.377.05-.562.079-.076.01-.152.02-.225.033-.251.036-.5.076-.748.116-.278.043-.553.089-.83.136-.126.02-.245.043-.367.063s-.245.043-.367.066l-.324.06q-.283.049-.566.109a.764.764,0,0,0-.076.016c-.251.046-.506.1-.758.152-.328.07-.658.139-.983.212-.043.01-.083.016-.122.03-.175.036-.354.076-.529.119q-.809.189-1.615.394l-.2.05c-.189.046-.377.1-.566.149l-.043.01c-.268.073-.536.146-.8.222-.112.033-.225.063-.334.1l-.334.1c-.007,0-.013,0-.02.007l-.136.04s0,0,0,0l-.43.129a.075.075,0,0,1-.026.007l-.1.03c-.05.017-.1.03-.149.046-.165.049-.331.1-.5.155s-.321.1-.483.152c-.089.026-.179.056-.265.086s-.179.059-.265.086c-.063.02-.126.043-.189.063-.232.076-.463.156-.7.235-.129.043-.255.089-.38.132l-.308.109c-.023.01-.05.016-.076.026-.2.073-.4.142-.6.215-.159.059-.318.116-.473.179-.03.01-.06.023-.086.033-.149.053-.291.109-.437.166q-.357.134-.715.278l-.758.308c-.251.1-.5.208-.754.314-.5.212-1,.43-1.5.652-.248.112-.5.225-.741.341-.089.043-.182.086-.271.125l-.073.033c-.129.063-.261.126-.39.185l-.291.139c-.1.047-.192.093-.288.143-.036.016-.073.033-.109.053a.369.369,0,0,0-.063.033c-.152.073-.3.149-.453.225l-.414.208c-.212.109-.427.218-.639.331-.093.049-.185.1-.278.146s-.182.1-.275.149l-.189.1c-.172.093-.344.185-.513.278-.069.036-.136.073-.2.113l-.056.029c-.172.1-.344.189-.513.288a.718.718,0,0,0-.069.04l-.334.189c-.112.063-.222.129-.334.192s-.232.136-.344.2-.228.136-.344.2l-.073.043c-.013.007-.023.017-.036.023-.248.149-.5.3-.741.45-.182.109-.361.221-.539.334-.285.179-.569.358-.85.543l-.394.255c-.1.07-.208.136-.311.205l-.076.05-.152.1c-.248.165-.5.334-.744.5-.139.1-.278.188-.417.285s-.275.2-.414.291c-.086.06-.169.119-.255.182s-.169.122-.251.182c-.265.192-.533.384-.8.582l-.308.229c-.1.076-.205.155-.308.232-.02.016-.04.029-.06.046-.205.156-.407.311-.609.47-.179.136-.354.275-.529.417a.458.458,0,0,0-.05.036c-.036.03-.073.056-.109.086-.192.152-.384.3-.576.46-.208.169-.417.341-.622.513s-.384.324-.576.486c-.218.185-.433.371-.648.556-.394.344-.784.688-1.168,1.039l-.033.033c-.4.361-.791.728-1.178,1.095-.2.185-.387.371-.579.559q-.576.561-1.141,1.135c-.189.192-.374.384-.559.576s-.371.39-.556.582-.367.39-.549.589c-.165.179-.328.357-.49.539l-.1.109s0,.007-.007.007l-.069.079c-.139.155-.275.307-.41.463-.089.1-.179.2-.265.3s-.175.2-.261.3c-.175.205-.351.407-.523.612s-.344.41-.516.619-.341.417-.51.625-.334.42-.5.632-.337.43-.5.645c-.324.424-.645.85-.956,1.28-.159.218-.318.433-.473.652s-.311.437-.463.659c-.136.192-.268.384-.4.579a.708.708,0,0,0-.043.063.4.4,0,0,1-.033.046c-.116.169-.232.341-.344.51-.043.063-.086.129-.129.2-.083.122-.162.245-.242.367-.01.013-.02.03-.03.043s-.033.056-.053.083a.012.012,0,0,1,0,.007l-.04.06-.073.113c-.129.2-.261.407-.39.612l-.056.086c-.01.013-.017.03-.026.043-.119.192-.238.381-.357.573s-.238.391-.357.585c0,0-.007.007-.007.01-.06.1-.122.2-.179.3-.109.182-.218.364-.324.546-.126.215-.251.43-.374.645-.146.255-.288.51-.433.767-.073.126-.142.255-.212.384s-.142.258-.212.387c-.222.41-.443.827-.655,1.244-.136.265-.271.53-.4.794-.122.245-.242.486-.357.728s-.235.49-.351.734-.228.49-.341.734c0,0,0,0,0,.007-.112.248-.225.5-.334.741s-.218.5-.328.748c-.076.175-.149.347-.222.523-.017.036-.03.072-.046.109-.043.1-.083.2-.126.3-.066.155-.129.314-.2.469-.026.069-.056.139-.083.205-.089.218-.175.44-.261.658-.079.2-.155.4-.232.6a.048.048,0,0,0-.007.02c-.06.152-.116.3-.169.457-.007.016-.01.033-.017.046-.053.139-.1.275-.152.413q-.144.387-.278.775c-.089.258-.179.516-.265.777-.155.463-.308.927-.453,1.393-.043.129-.083.261-.126.394-.007.02-.01.036-.017.056-.056.176-.109.351-.162.53-.033.116-.069.231-.1.344s-.069.231-.1.344c-.01.033-.02.07-.03.1,0,.01-.007.02-.01.033s-.007.023-.01.037c-.033.112-.063.225-.1.337s-.069.248-.1.371-.073.261-.109.394c-.007.02-.01.04-.017.059-.01.036-.02.076-.03.113s-.01.043-.017.066c-.023.093-.05.189-.073.281-.036.136-.069.271-.106.407-.007.023-.013.049-.02.076s-.01.046-.017.069c-.017.069-.036.142-.053.215-.056.222-.112.447-.165.672a1.114,1.114,0,0,0-.026.113c-.05.218-.1.437-.152.652,0,.007,0,.016-.007.023-.007.023-.01.043-.017.066s-.007.03-.01.046c-.06.261-.116.523-.172.784s-.106.5-.155.751-.1.486-.142.731c-.026.139-.053.278-.076.42a.031.031,0,0,0,0,.017c-.033.182-.069.364-.1.549-.05.275-.1.549-.142.827-.089.552-.175,1.108-.251,1.664-.013.093-.023.182-.036.275l-.02.139c-.023.169-.046.338-.066.5-.033.258-.063.516-.1.777s-.063.549-.089.824c-.013.129-.03.261-.04.391s-.026.261-.036.39c0,.007,0,.017,0,.023a.5.5,0,0,0-.007.066q-.035.343-.06.685c-.007.07-.01.139-.017.208-.017.212-.033.424-.046.635-.007.079-.01.159-.017.238v.013c-.007.109-.017.219-.023.328s-.013.225-.02.341c-.013.209-.023.417-.033.622l-.03.625c0,.089-.007.182-.01.271s-.007.182-.01.271v.01c-.01.271-.017.543-.023.818,0,.059,0,.119,0,.178-.007.222-.007.447-.01.672v.056H1Z" transform="translate(0 -1310.031)" fill="#82001e"/>
      <path id="Path_4409" data-name="Path 4409" d="M73.269,1378.832V1305.57h-.7c-.165,0-.328,0-.493,0a72.662,72.662,0,0,0-71.463,63.2q-.144,1.087-.248,2.184v0c-.109,1.092-.192,2.187-.248,3.3q-.084,1.573-.1,3.16,0,.1,0,.208c0,.165,0,.331,0,.5v.7H73.269Zm-1.409-71.85v70.44H1.419a71.229,71.229,0,0,1,70.44-70.44" transform="translate(-0.007 -873.629)" fill="#ff6e28"/>
      <path id="Path_4410" data-name="Path 4410" d="M.7,1596.012c.235,0,.47,0,.7,0a72.327,72.327,0,0,0,13.555-1.406,72.767,72.767,0,0,0,56.889-56.879,72.147,72.147,0,0,0,1.406-13.565c0-.07,0-.142,0-.212,0-.166,0-.328,0-.493v-.7H0v73.262Zm71.145-71.853a71.229,71.229,0,0,1-70.44,70.44v-70.44Z" transform="translate(0 -1018.956)" fill="#ff6e28"/>
      <path id="Path_4411" data-name="Path 4411" d="M1.5,869.71v71.853A71.853,71.853,0,0,0,73.353,869.71Z" transform="translate(-1.004 -581.971)" fill="#ffb121"/>
      <path id="Path_4412" data-name="Path 4412" d="M.5,941.055c.235,0,.47,0,.7,0h0a72.087,72.087,0,0,0,12.45-1.2A72.461,72.461,0,0,0,72.839,869.2c0-.165,0-.331,0-.5v-.5H0v72.845ZM1,869.2H71.853a71.453,71.453,0,0,1-65.9,70.652q-2.352.184-4.744.205c-.069,0-.139,0-.208,0V869.2" transform="translate(0 -580.967)" fill="#ffb121"/>
      <path id="Path_4413" data-name="Path 4413" d="M1.5,73.353H73.353A71.853,71.853,0,0,0,1.5,1.5Z" transform="translate(-1.004 -1.004)" fill="#ff6e28"/>
      <path id="Path_4414" data-name="Path 4414" d="M71.645,72.349v-.5H1V6.015Q.822,8.347.5,10.643V72.349Zm0,0v-.5H1V6.015Q.822,8.347.5,10.643V72.349Zm0,0v-.5H1V6.015Q.822,8.347.5,10.643V72.349Zm0,0v-.5H1V6.015Q.822,8.347.5,10.643V72.349Zm0,0v-.5H1V6.015Q.822,8.347.5,10.643V72.349Zm1.2.5v-.5c0-.165,0-.331,0-.5q0-.1,0-.208a73.687,73.687,0,0,0-.6-8.645A72.465,72.465,0,0,0,1.2,0C.969,0,.731,0,.5,0H0V72.845ZM1,1c.069,0,.136,0,.205,0h0A71.442,71.442,0,0,1,71.747,68.485q.089,1.573.1,3.16c0,.069,0,.139,0,.208H1ZM71.645,72.349v-.5H1V6.015Q.822,8.347.5,10.643V72.349Zm0,0v-.5H1V6.015Q.822,8.347.5,10.643V72.349Zm0,0v-.5H1V6.015Q.822,8.347.5,10.643V72.349Zm0,0v-.5H1V6.015Q.822,8.347.5,10.643V72.349Zm0,0v-.5H1V6.015Q.822,8.347.5,10.643V72.349Z" fill="#ff6e28"/>
      <path id="Path_4415" data-name="Path 4415" d="M.7,1161.652a72.639,72.639,0,0,0,72.558-72.558v-.7H0v73.262Zm.7-71.853H71.85a71.229,71.229,0,0,1-70.44,70.44V1089.8" transform="translate(0 -728.302)" fill="#ff6e28"/>
      <path id="Path_4416" data-name="Path 4416" d="M73.353,652.53A71.855,71.855,0,0,0,1.5,724.383H73.353Z" transform="translate(-1.004 -436.644)" fill="#ffb121"/>
      <path id="Path_4417" data-name="Path 4417" d="M72.845,723.876V651.03h-.5A72.433,72.433,0,0,0,0,722.681c0,.07,0,.136,0,.205,0,.165,0,.331,0,.5v.5H72.845ZM1,722.675a71.436,71.436,0,0,1,70.854-70.649v70.857H1c0-.07,0-.136,0-.208" transform="translate(0 -435.64)" fill="#ffb121"/>
    </g>
  </g>
</svg>
