<svg xmlns="http://www.w3.org/2000/svg" xmlns:xlink="http://www.w3.org/1999/xlink" width="80" height="80" viewBox="0 0 80 80">
  <defs>
    <clipPath id="clip-path">
      <rect id="Rectangle_8136" data-name="Rectangle 8136" width="69.7" height="79.209" fill="none"/>
    </clipPath>
  </defs>
  <g id="Group_8543" data-name="Group 8543" transform="translate(-971 -3305)">
    <rect id="Rectangle_8109" data-name="Rectangle 8109" width="80" height="80" transform="translate(971 3305)" fill="none"/>
    <g id="Group_8542" data-name="Group 8542" transform="translate(976 3305)">
      <g id="Group_8541" data-name="Group 8541" clip-path="url(#clip-path)">
        <path id="Path_4133" data-name="Path 4133" d="M229.313,61.2a.716.716,0,0,1-.24-.042.708.708,0,0,1-.426-.907l.484-1.347-1.265.31a.7.7,0,0,1-.683-.136,5.216,5.216,0,0,0-1.254-.874.716.716,0,0,1-.412-.909.7.7,0,0,1,.895-.423,5.273,5.273,0,0,1,1.411.895l1.453-.358a1.152,1.152,0,0,1,1.36,1.506l-.655,1.818a.71.71,0,0,1-.668.467" transform="translate(-185.758 -46.821)" fill="#23232d"/>
        <path id="Path_4134" data-name="Path 4134" d="M146.417,73.189h-1.931a.705.705,0,0,1-.615-.358l-1.166-2.038a12.664,12.664,0,0,1-4.377.715,12.841,12.841,0,0,1-4.308-.724l-1.171,2.047a.711.711,0,0,1-.615.358H130.3a.71.71,0,0,1-.71-.71V67.9a7.815,7.815,0,0,1-1.865-3.648l-.976-.484a1.3,1.3,0,0,1,.99-2.392,8.121,8.121,0,0,1,4.664-5.749.709.709,0,1,1,.55,1.307,6.621,6.621,0,0,0-3.935,5.552.708.708,0,0,1-.354.567l-.019.011a.709.709,0,0,1,.412.553,6.371,6.371,0,0,0,1.76,3.521.712.712,0,0,1,.194.539v4.094h.812l1.228-2.145c.007-.014.012-.028.021-.042a.705.705,0,0,1,.9-.335,11.338,11.338,0,0,0,4.361.844,10.951,10.951,0,0,0,4.407-.835.709.709,0,0,1,.895.3l1.266,2.214h.81V67.624a.7.7,0,0,1,.2-.5,1.5,1.5,0,0,0,.187-.227l.041-.062c.06-.09.125-.187.215-.306a.71.71,0,0,1,.738-.261l.948.238a.8.8,0,0,0,.6-.09.784.784,0,0,0,.361-.484l.354-1.233a.789.789,0,0,0-.579-.937l-.668-.2a.6.6,0,0,1-.062-.007.709.709,0,0,1-.6-.821,4.43,4.43,0,0,0-.572-2.8.709.709,0,1,1,1.043-.962,5.237,5.237,0,0,1,.974,3.347l.268.081a2.2,2.2,0,0,1,1.569,2.67l-.354,1.233a2.212,2.212,0,0,1-2.674,1.58l-.472-.12c-.028.041-.06.083-.1.127v4.585a.716.716,0,0,1-.713.713m1.677-13.739h0Z" transform="translate(-103.831 -45.782)" fill="#23232d"/>
        <path id="Path_4135" data-name="Path 4135" d="M168.75,22.365a.675.675,0,0,1-.178-.023,5.714,5.714,0,1,1,3.037-.048.7.7,0,0,1-.277.023,10.068,10.068,0,0,0-2.485.041.584.584,0,0,1-.1.007m1.256-9.85a4.3,4.3,0,0,0-1.207,8.42,11.5,11.5,0,0,1,2.542-.041,4.3,4.3,0,0,0-1.335-8.379" transform="translate(-135.351 -9.141)" fill="#ff6e28"/>
        <path id="Path_4136" data-name="Path 4136" d="M173.333,69.2a.7.7,0,0,1-.359-.1,8.912,8.912,0,0,0-3.57-1.2,10.068,10.068,0,0,0-2.485.041,11.339,11.339,0,0,0-3.674,1.161.709.709,0,0,1-.706-1.229,12.509,12.509,0,0,1,4.187-1.337,11.525,11.525,0,0,1,2.836-.044,10.373,10.373,0,0,1,4.134,1.384.709.709,0,0,1-.361,1.319" transform="translate(-133.614 -54.732)" fill="#23232d"/>
        <path id="Path_4137" data-name="Path 4137" d="M231.855,7.182a3.607,3.607,0,0,1-1.328-.255,3.567,3.567,0,0,1-1.143-.733.708.708,0,1,1,.978-1.025,2.125,2.125,0,0,0,.69.442,2.173,2.173,0,1,0-1.212-2.824,2.135,2.135,0,0,0-.151.918.709.709,0,0,1-1.416.079,3.509,3.509,0,0,1,.252-1.524,3.59,3.59,0,1,1,3.331,4.921" transform="translate(-188.059 0)" fill="#ff6e28"/>
        <path id="Path_4138" data-name="Path 4138" d="M37.953,206.094a.713.713,0,0,1-.653-.432L27.015,181.577l-10.736,24.1a.709.709,0,0,1-1.295-.576l11.4-25.581a.711.711,0,0,1,.648-.421h.005a.707.707,0,0,1,.646.432L38.6,205.108a.71.71,0,0,1-.373.93.741.741,0,0,1-.278.056" transform="translate(-12.294 -147.549)" fill="#23232d"/>
        <path id="Path_4139" data-name="Path 4139" d="M26.79,335.31c-6.545,0-11.87-4.618-11.87-10.3a.71.71,0,0,1,.71-.71l4.7,0a.709.709,0,1,1,0,1.418l-3.956,0c.426,4.566,4.937,8.168,10.419,8.168s9.991-3.6,10.419-8.168l-3.981,0a.709.709,0,1,1,0-1.418l4.724,0a.71.71,0,0,1,.71.71c0,5.677-5.323,10.3-11.869,10.3" transform="translate(-12.292 -267.181)" fill="#23232d"/>
        <path id="Path_4140" data-name="Path 4140" d="M133.445,194.52H105.706a2.836,2.836,0,0,1,0-5.672H116.74V140.675a.71.71,0,1,1,1.42,0v48.882a.71.71,0,0,1-.71.71H105.708a1.418,1.418,0,1,0,0,2.836h27.737a1.424,1.424,0,0,0,1-.419,1.416,1.416,0,0,0-1-2.417H121.7a.71.71,0,0,1-.71-.71V140.675a.71.71,0,1,1,1.42,0v48.172h11.034a2.837,2.837,0,0,1,0,5.674" transform="translate(-84.75 -115.311)" fill="#23232d"/>
        <path id="Path_4141" data-name="Path 4141" d="M28.287,174.775H.71a.71.71,0,0,1,0-1.42H28.285a.71.71,0,0,1,0,1.42" transform="translate(0 -142.82)" fill="#23232d"/>
        <path id="Path_4142" data-name="Path 4142" d="M259.367,174.775H231.79a.71.71,0,0,1,0-1.42h27.577a.71.71,0,1,1,0,1.42" transform="translate(-190.377 -142.82)" fill="#23232d"/>
        <path id="Path_4143" data-name="Path 4143" d="M269.025,206.094a.713.713,0,0,1-.653-.432l-10.287-24.086-10.736,24.1a.709.709,0,0,1-1.295-.576l11.4-25.581a.711.711,0,0,1,.648-.421h.005a.709.709,0,0,1,.646.43l10.924,25.581a.709.709,0,0,1-.373.93.7.7,0,0,1-.277.058" transform="translate(-202.663 -147.549)" fill="#23232d"/>
        <path id="Path_4144" data-name="Path 4144" d="M257.87,335.31c-6.546,0-11.87-4.618-11.87-10.3a.71.71,0,0,1,.71-.71l4.7,0a.709.709,0,1,1,0,1.418l-3.956,0c.426,4.566,4.937,8.168,10.419,8.168s9.993-3.6,10.419-8.168l-3.981,0a.709.709,0,1,1,0-1.418l4.724,0a.71.71,0,0,1,.71.71c0,5.677-5.325,10.3-11.87,10.3" transform="translate(-202.669 -267.181)" fill="#23232d"/>
      </g>
    </g>
  </g>
</svg>
