<svg xmlns="http://www.w3.org/2000/svg" xmlns:xlink="http://www.w3.org/1999/xlink" width="80" height="80" viewBox="0 0 80 80">
  <defs>
    <clipPath id="clip-path">
      <rect id="Rectangle_8124" data-name="Rectangle 8124" width="71" height="76" transform="translate(0.058 -0.071)" fill="none"/>
    </clipPath>
  </defs>
  <g id="Group_8527" data-name="Group 8527" transform="translate(-580 -3305)">
    <rect id="Rectangle_8109" data-name="Rectangle 8109" width="80" height="80" transform="translate(580 3305)" fill="none"/>
    <g id="Group_8526" data-name="Group 8526" transform="translate(584.941 3307.071)">
      <g id="Group_8525" data-name="Group 8525" clip-path="url(#clip-path)">
        <path id="Path_4090" data-name="Path 4090" d="M188.161,214.446a.732.732,0,0,1-.731-.733V189.972a.733.733,0,0,1,.363-.632c8.217-4.792,14.1-3.7,20.328-2.552,5.209.963,10.6,1.959,17.779-.669a.732.732,0,0,1,.983.687v23.743a.734.734,0,0,1-.48.687c-7.559,2.765-13.144,1.731-18.548.733-5.954-1.1-11.577-2.142-19.325,2.378a.767.767,0,0,1-.37.1m.731-24.052v22.074c7.65-4.081,13.281-3.039,19.228-1.939,5.092.941,10.352,1.915,17.3-.5v-22.2c-7.065,2.333-12.4,1.346-17.564.39-5.859-1.083-11.4-2.108-18.961,2.169" transform="translate(-155.772 -154.417)" fill="#ff6e28"/>
        <path id="Path_4091" data-name="Path 4091" d="M188.161,200.472a.732.732,0,0,1-.731-.731v-45.9a3.9,3.9,0,1,1,7.793,0V157a.731.731,0,1,1-1.463,0v-3.165a2.434,2.434,0,0,0-4.868,0v45.9a.732.732,0,0,1-.731.731" transform="translate(-155.772 -124.614)" fill="#ff6e28"/>
        <path id="Path_4092" data-name="Path 4092" d="M225.641,353.251a.732.732,0,0,1-.731-.731V334.5a.731.731,0,1,1,1.463,0V352.52a.732.732,0,0,1-.731.731" transform="translate(-186.921 -277.394)" fill="#ff6e28"/>
        <path id="Path_4093" data-name="Path 4093" d="M94.441,139.476a.732.732,0,0,1-.731-.733V115a.732.732,0,0,1,.363-.632c8.217-4.792,14.1-3.7,20.328-2.552,5.209.963,10.594,1.959,17.777-.669a.732.732,0,0,1,.983.687v9.5a.731.731,0,1,1-1.463,0v-8.469c-7.065,2.333-12.4,1.346-17.564.39-5.861-1.083-11.4-2.108-18.961,2.169V137.5a23.021,23.021,0,0,1,10.324-2.9.724.724,0,0,1,.757.706.733.733,0,0,1-.706.757,22.248,22.248,0,0,0-10.737,3.321.746.746,0,0,1-.368.1" transform="translate(-77.882 -92.11)" fill="#23232d"/>
        <path id="Path_4094" data-name="Path 4094" d="M94.441,138.164a.732.732,0,0,1-.731-.731V78.867a3.9,3.9,0,1,1,7.793,0v3.165a.731.731,0,1,1-1.463,0V78.867a2.434,2.434,0,0,0-4.868,0v58.566a.731.731,0,0,1-.731.731" transform="translate(-77.882 -62.307)" fill="#23232d"/>
        <path id="Path_4095" data-name="Path 4095" d="M131.931,290.944a.732.732,0,0,1-.731-.731V259.531a.731.731,0,1,1,1.463,0v30.682a.732.732,0,0,1-.731.731" transform="translate(-109.04 -215.087)" fill="#23232d"/>
        <path id="Path_4096" data-name="Path 4096" d="M.731,64.5A.732.732,0,0,1,0,63.765V40.022a.733.733,0,0,1,.363-.632c8.216-4.792,14.1-3.7,20.328-2.552,5.209.963,10.594,1.959,17.777-.669a.732.732,0,0,1,.983.687v9.5a.731.731,0,1,1-1.463,0V37.885c-7.065,2.333-12.4,1.346-17.564.39-5.861-1.084-11.4-2.108-18.961,2.169V62.518a23.015,23.015,0,0,1,10.324-2.9.732.732,0,1,1,.051,1.463A22.248,22.248,0,0,0,1.1,64.4a.735.735,0,0,1-.368.1" transform="translate(0 -29.794)" fill="#23232d"/>
        <path id="Path_4097" data-name="Path 4097" d="M.731,75.857A.732.732,0,0,1,0,75.126V3.9a3.9,3.9,0,0,1,7.793,0V7.062a.731.731,0,0,1-1.463,0V3.9a2.434,2.434,0,1,0-4.868,0V75.126a.732.732,0,0,1-.731.731" fill="#23232d"/>
        <path id="Path_4098" data-name="Path 4098" d="M38.221,228.637a.732.732,0,0,1-.731-.731V184.561a.731.731,0,0,1,1.463,0v43.344a.732.732,0,0,1-.731.731" transform="translate(-31.158 -152.78)" fill="#23232d"/>
      </g>
    </g>
  </g>
</svg>
