<svg xmlns="http://www.w3.org/2000/svg" xmlns:xlink="http://www.w3.org/1999/xlink" width="80" height="80" viewBox="0 0 80 80">
  <defs>
    <clipPath id="clip-path">
      <rect id="Rectangle_8144" data-name="Rectangle 8144" width="72.924" height="80" fill="none"/>
    </clipPath>
  </defs>
  <g id="Group_8570" data-name="Group 8570" transform="translate(-791 -3849)">
    <rect id="Rectangle_8109" data-name="Rectangle 8109" width="80" height="80" transform="translate(791 3849)" fill="none"/>
    <g id="Group_8569" data-name="Group 8569" transform="translate(795 3849)">
      <g id="Group_8568" data-name="Group 8568" clip-path="url(#clip-path)">
        <path id="Path_4247" data-name="Path 4247" d="M171.313,120.36a.767.767,0,0,1-.332-.074l-6.122-2.854a.782.782,0,0,1-.449-.627,4.715,4.715,0,0,1-.031-.533v-7.4a4.768,4.768,0,0,1,4.7-4.823,4.619,4.619,0,0,1,3.328,1.422,4.881,4.881,0,0,1,1.371,3.4v7.4a4.854,4.854,0,0,1-2,3.942.834.834,0,0,1-.461.144m-5.366-4.153,5.247,2.447a3.3,3.3,0,0,0,1.007-2.382v-7.4a3.313,3.313,0,0,0-.928-2.31,3.059,3.059,0,0,0-2.2-.944,3.2,3.2,0,0,0-3.128,3.252v7.335Z" transform="translate(-134.763 -85.303)" fill="#23232d"/>
        <path id="Path_4248" data-name="Path 4248" d="M129.392,114.326a.747.747,0,0,1-.216-.031.785.785,0,0,1-.541-.971,3.01,3.01,0,0,0,.112-.829v-7.4a3.313,3.313,0,0,0-.928-2.31,3.062,3.062,0,0,0-2.2-.944,3.2,3.2,0,0,0-3.128,3.252v5.593a.786.786,0,1,1-1.571,0V105.1a4.77,4.77,0,0,1,4.7-4.825,4.62,4.62,0,0,1,3.328,1.422,4.887,4.887,0,0,1,1.371,3.4v7.4a4.6,4.6,0,0,1-.171,1.259.784.784,0,0,1-.755.573" transform="translate(-99.133 -82.204)" fill="#23232d"/>
        <path id="Path_4249" data-name="Path 4249" d="M212.487,130.623a4.7,4.7,0,0,1-4.7-4.7v-6.088a4.7,4.7,0,0,1,9.394,0v6.088a4.7,4.7,0,0,1-4.7,4.7m0-13.911a3.129,3.129,0,0,0-3.126,3.126v6.088a3.126,3.126,0,0,0,6.252,0v-6.088a3.129,3.129,0,0,0-3.126-3.126" transform="translate(-170.351 -94.395)" fill="#23232d"/>
        <path id="Path_4250" data-name="Path 4250" d="M255.917,142.293a4.7,4.7,0,0,1-4.7-4.7v-6.088a4.7,4.7,0,1,1,9.394,0V137.6a4.7,4.7,0,0,1-4.7,4.7m0-13.911a3.129,3.129,0,0,0-3.126,3.126V137.6a3.126,3.126,0,0,0,6.252,0v-6.088a3.13,3.13,0,0,0-3.126-3.126" transform="translate(-205.956 -103.962)" fill="#23232d"/>
        <path id="Path_4251" data-name="Path 4251" d="M164.535,171.205a.774.774,0,0,1-.342-.079l-.168-.081a.786.786,0,0,1,.686-1.414l.168.081a.786.786,0,0,1-.344,1.494" transform="translate(-134.108 -139.002)" fill="#23232d"/>
        <path id="Path_4252" data-name="Path 4252" d="M98.655,206.472a.785.785,0,0,1-.786-.78l-.141-21.223a10.718,10.718,0,0,0-2.414-6.629l-3.726-4.528a12.192,12.192,0,0,1-1.506-13.081l1.548-3.16c.009-.018.02-.036.029-.054a5.35,5.35,0,0,1,6.393-2.427l11.665,5.441a3.1,3.1,0,0,1,1.722,2.178,3.171,3.171,0,0,1-.694,2.755,8.3,8.3,0,0,1-4.557,3,5.318,5.318,0,0,1-3.272-.382c-4.984-2.207-6.414-2.845-6.414-2.845a.786.786,0,1,1,.64-1.436s1.431.64,6.409,2.843a3.776,3.776,0,0,0,2.326.277,7.1,7.1,0,0,0,3.674-2.483,1.609,1.609,0,0,0,.35-1.4,1.532,1.532,0,0,0-.85-1.085l-11.665-5.441a3.77,3.77,0,0,0-4.36,1.777l-1.533,3.131A10.621,10.621,0,0,0,92.8,172.314l3.726,4.528a12.29,12.29,0,0,1,2.773,7.611l.141,21.23a.785.785,0,0,1-.78.791s0,0,0,0" transform="translate(-72.832 -126.474)" fill="#23232d"/>
        <path id="Path_4253" data-name="Path 4253" d="M276.566,228.893a.785.785,0,0,1-.786-.786v-20.14a44.031,44.031,0,0,1,.939-9.039l1.476-7.025a46.322,46.322,0,0,0,.986-9.5.786.786,0,1,1,1.571,0,47.819,47.819,0,0,1-1.02,9.821l-1.476,7.027a42.538,42.538,0,0,0-.9,8.717v20.14a.786.786,0,0,1-.786.782" transform="translate(-226.091 -148.896)" fill="#23232d"/>
        <path id="Path_4254" data-name="Path 4254" d="M185.718,236.444a.311.311,0,0,1-.04,0,.786.786,0,0,1-.746-.823c0-.079.33-8.068-4.76-12.6a.786.786,0,1,1,1.047-1.173c5.659,5.043,5.3,13.5,5.285,13.856a.787.787,0,0,1-.786.746" transform="translate(-147.494 -181.708)" fill="#23232d"/>
        <path id="Path_4255" data-name="Path 4255" d="M198.8,8.607a.785.785,0,0,1-.786-.786V.786a.786.786,0,0,1,1.571,0V7.821a.786.786,0,0,1-.786.786" transform="translate(-162.333)" fill="#ff6e28"/>
        <path id="Path_4256" data-name="Path 4256" d="M364.791,193.921h-7.036a.786.786,0,0,1,0-1.571h7.036a.786.786,0,0,1,0,1.571" transform="translate(-292.653 -157.693)" fill="#ff6e28"/>
        <path id="Path_4257" data-name="Path 4257" d="M7.821,193.921H.786a.786.786,0,0,1,0-1.571H7.821a.786.786,0,0,1,0,1.571" transform="translate(0 -157.693)" fill="#ff6e28"/>
        <path id="Path_4258" data-name="Path 4258" d="M274.726,31.942a.787.787,0,0,1-.686-1.168l3.407-6.155a.786.786,0,1,1,1.375.762l-3.407,6.155a.787.787,0,0,1-.688.405" transform="translate(-224.583 -19.852)" fill="#ff6e28"/>
        <path id="Path_4259" data-name="Path 4259" d="M33.393,101.6a.783.783,0,0,1-.38-.1L26.856,98.1a.786.786,0,1,1,.762-1.375l6.157,3.407a.786.786,0,0,1-.382,1.474" transform="translate(-21.685 -79.216)" fill="#ff6e28"/>
        <path id="Path_4260" data-name="Path 4260" d="M328.106,104.47a.785.785,0,0,1-.4-1.463l6.068-3.56a.786.786,0,0,1,.795,1.357l-6.068,3.56a.819.819,0,0,1-.4.106" transform="translate(-268.345 -81.439)" fill="#ff6e28"/>
        <path id="Path_4261" data-name="Path 4261" d="M99.236,33.508a.783.783,0,0,1-.677-.387L95,27.052a.786.786,0,1,1,1.357-.795l3.558,6.067a.786.786,0,0,1-.281,1.076.773.773,0,0,1-.4.108" transform="translate(-77.793 -21.207)" fill="#ff6e28"/>
      </g>
    </g>
  </g>
</svg>
